<?xml version="1.0" encoding="UTF-8"?>
<svg id="Layer_1" data-name="Layer 1" xmlns="http://www.w3.org/2000/svg" version="1.1" viewBox="0 0 1920 1080">
  <defs>
    <style>
      .cls-1 {
        fill: #256ec4;
      }

      .cls-1, .cls-2, .cls-3, .cls-4, .cls-5, .cls-6, .cls-7, .cls-8, .cls-9, .cls-10, .cls-11, .cls-12, .cls-13, .cls-14, .cls-15, .cls-16, .cls-17, .cls-18, .cls-19, .cls-20, .cls-21, .cls-22 {
        stroke-width: 0px;
      }

      .cls-2 {
        fill: #c4a53f;
      }

      .cls-3 {
        fill: #252425;
      }

      .cls-4 {
        fill: #c2a23b;
      }

      .cls-5 {
        fill: #2b73c5;
      }

      .cls-6 {
        fill: #c29f2f;
      }

      .cls-7 {
        fill: #2162af;
      }

      .cls-8 {
        fill: #c2a139;
      }

      .cls-9 {
        fill: #4382c5;
      }

      .cls-10 {
        fill: #c1a138;
      }

      .cls-11 {
        fill: #211f20;
      }

      .cls-12 {
        fill: #266fc3;
      }

      .cls-13 {
        fill: #3570b7;
      }

      .cls-14 {
        fill: #c3a238;
      }

      .cls-15 {
        fill: #2770c5;
      }

      .cls-16 {
        fill: #216dc4;
      }

      .cls-17 {
        fill: #c29d29;
      }

      .cls-18 {
        fill: #256ec3;
      }

      .cls-19 {
        fill: #236ec5;
      }

      .cls-20 {
        fill: #c0a036;
      }

      .cls-21 {
        fill: #c29d28;
      }

      .cls-22 {
        fill: #232223;
      }
    </style>
  </defs>
  <path class="cls-16" d="M734.2,254.9c-2.3-3.1-3.9-.2-5.2.9-20.1,15.1-40.1,30.2-60.2,45.4-9.7,7.3-19.4,14.5-29.5,22-.5-1.5-.9-2.2-.9-3,0-12.2-.2-24.3.1-36.5,0-2,2-4.4,3.8-5.8,32.8-25.1,65.6-50,98.4-75,37.3-28.4,74.6-56.8,111.9-85.2.9-.7,1.9-1.3,3.6-2.5v266.3c-8-4.7-15.1-8.9-22.1-13.1-10.6-6.5-21.3-13-31.8-19.7-3.1-2-5.5-1.8-8.6,0-16.1,10-32.3,19.8-48.5,29.6-1.7,1-3.5,1.8-5.3,2.6-3.4-.7-4.1-2.8-4-6.1.1-39,0-78,0-117,0-1.3-.1-2.6-.2-4.3-.9.7-1.2,1.1-1.6,1.4Z"/>
  <path class="cls-17" d="M1080.1,546.7c-2.1,0-4.2,0-6.3,0-24,0-48-.3-72,.1-7.2.1-12.6-3.1-18.3-6.6-23.2-14.1-46.3-28.4-69.6-42.4-22.8-13.8-45.8-27.2-68.6-41-13.9-8.4-27.7-16.8-41.5-25.5-4.2-2.6-7.4-2.8-11.8,0-26.4,16.3-52.9,32.2-79.4,48.3-30.6,18.6-61.2,37.2-91.9,55.7-6.1,3.7-12.3,7-18.7,10-2.4,1.2-5.5,1.4-8.3,1.4-25.5.1-51,0-76.5,0-.8,0-1.6-.2-4-.4,9.6-6.2,17.9-11.8,26.4-17,31.8-19.2,63.7-38.3,95.5-57.5,28.1-16.9,56.1-33.9,84.1-50.9,24.3-14.8,48.7-29.6,72.9-44.6,4-2.5,7-2.7,11.2,0,21.4,13.4,43,26.4,64.5,39.4,36.3,21.9,72.7,43.7,108.9,65.6,16.7,10.1,33.2,20.6,49.9,30.8,15.7,9.6,31.5,19.2,47.2,28.8,2.2,1.4,4.4,2.9,6.5,4.4,0,.5-.2,1-.3,1.5Z"/>
  <path class="cls-11" d="M636.7,443.2c0-4.8,0-8.6,0-12.3,0-30.3.1-60.6,0-90.9,0-3.4,1.3-5.1,4-7.1,17.9-13,35.5-26.4,53.2-39.7,8.8-6.6,17.6-13,27-20,.2,1.8.4,3,.4,4.2,0,36.8,0,73.6,0,110.4,0,3.3-1,5.2-4,7-25.1,15-50.1,30.2-75.1,45.4-1.5.9-3.1,1.6-5.7,3Z"/>
  <path class="cls-21" d="M958.7,312.4c-5.9-3.4-10.5-5.9-15-8.6-22-13.5-44-26.9-66-40.5-1.6-1-3.5-3.3-3.5-5-.2-34,0-67.9,0-101.9,0-.5.2-1,.4-2.5,4.3,2.8,8.3,5.2,12.1,7.9,14.4,10,28.8,20.1,43.2,30.2,8.1,5.7,16.1,11.6,24.7,16.6,3.9,2.3,4.3,5,4.3,8.5,0,27.5-.1,55-.2,82.4,0,3.8,0,7.6,0,13.1Z"/>
  <path class="cls-21" d="M874.6,284.6c9,6.1,17.2,11.6,25.4,17.2,18.5,12.8,37.1,25.5,55.4,38.5,1.7,1.2,3.3,3.9,3.3,5.9.1,31,0,61.9,0,92.9,0,1.1-.4,2.2-.8,4.3-9.1-5.7-17.6-11-26.2-16.2-18-10.9-36-21.7-53.9-32.7-1.6-1-3.5-3.3-3.5-5.1-.2-33.8-.1-67.6-.1-101.4,0-.8.2-1.6.4-3.4Z"/>
  <path class="cls-12" d="M772,601.3c-6.6,13.8-13.2,27.5-19.7,41.3-2.6,5.6-5.4,9.8-12.9,9.3-5.5-.4-8.6-2.4-10.8-7.1-6.3-13.2-12.7-26.4-19.1-39.6-.5-1-1.1-1.9-2.9-2.8,0,2.3,0,4.7,0,7,0,11,.2,22,0,33-.1,7.4-2.1,9.2-8.7,9.2-6.9,0-8.9-1.8-8.9-8.9,0-21.5,0-43,0-64.5,0-7.5,1.9-8.4,9.1-9.3,10.7-1.4,16.3,2.9,20.3,12.8,5.8,14.3,13.1,28,19.8,42,.3.7.9,1.3,1.8,2.5,1-1.7,1.8-2.8,2.4-4.1,7.6-15.6,15.2-31.1,22.6-46.8,2.1-4.5,5.1-6.7,10.1-6.3,2.6.2,5.3,0,8,0,5.6,0,7.5,1.8,7.7,7.5.2,5.5,0,11,0,16.5,0,16.3,0,32.7,0,49,0,8.7-5.2,12.1-13.5,9.2-3.6-1.2-4-4.1-4-7.2,0-12.3,0-24.7,0-37,0-1.8,0-3.6,0-5.4-.4,0-.9-.2-1.3-.3Z"/>
  <path class="cls-18" d="M1133.3,651.6c-8.7,0-17.3,0-26,0-6.5,0-8-1.5-8.4-7.7-.1-1.7,0-3.3,0-5,.4-5.8,1.9-7.4,7.7-7.4,16.3,0,32.7,0,49,0,3.7,0,6.4-.6,6.7-5.3.2-4.5-1.2-6.1-5.9-6-13,.3-26,0-39,0-9.6,0-15.6-3.9-17.2-13.3-1.3-7.4-1.2-15.4.2-22.7,1.9-9.7,8.1-14.5,18.1-14.8,17.6-.5,35.3-.2,53-.2,4,0,6,2.4,6.5,6.2.2,1.8.1,3.7,0,5.5-.1,6.6-1.8,8.3-8.3,8.3-15.5,0-31,0-46.5,0-3.8,0-6.1,1.1-6.3,5.2-.3,3.9,1,5.8,5.3,5.7,12.5-.2,25,0,37.5,0,12.6,0,18.7,4.8,20.2,17.2.7,6,.4,12.4-.7,18.3-2,10.2-9.4,15.9-19.9,16.1-8.7.2-17.3,0-26,0h0Z"/>
  <path class="cls-18" d="M1074.2,626c0-17.1,0-32.7,0-48.3,0-6.9,1.8-8.6,8.6-8.6,6.9,0,8.8,1.8,8.8,8.9,0,21.8,0,43.6,0,65.4,0,6.4-1.9,7.5-8.5,8.3-9.3,1.1-15.4-2.2-21-9.8-10.6-14.6-22.4-28.5-33.7-42.6-.8-1-1.7-2-3.4-3.9-.2,2.5-.4,4-.4,5.5,0,13.8,0,27.6,0,41.5,0,7.3-2.1,9.3-8.6,9.3-7.4,0-9-1.5-9-9.2,0-21.5,0-43,0-64.4,0-7.1,1.9-8.3,8.8-9.1,9.1-1.1,15.1,2.3,20.5,9.6,11,14.8,22.8,29,34.3,43.4.8,1,1.7,2,3.5,4.1Z"/>
  <path class="cls-18" d="M956.3,651.6c-4.5,0-9,0-13.5,0-13.1,0-22.5-6.1-26.7-18.6-5.2-15.4-5.2-31.2.5-46.5,4.1-11.1,12.6-16.9,24.5-17.3,10.2-.3,20.3-.3,30.5,0,12.5.4,21.2,6.7,25.2,18.5,5,15,5.1,30.2.1,45.1-3.9,11.7-12.5,18.2-25.1,18.7-5.2.2-10.3,0-15.5,0,0,0,0,0,0,.1ZM956.5,631.5s0,0,0,0c3.8,0,7.7.2,11.5,0,7.2-.4,12-3.7,12.9-10.8,1-6.9,1-14.2,0-21.2-1-6.8-5.7-10.3-12.1-10.5-8.1-.2-16.3-.2-24.4,0-5.7.1-10.6,2.9-11.4,8.5-1.1,7.7-1.5,15.8-.6,23.5.7,6.7,6,10.1,12.8,10.3,3.8.1,7.6,0,11.5,0Z"/>
  <path class="cls-19" d="M865.9,627.9c-7.6.2-15.2.5-22.7.6-8.1.1-16.2,0-25.2,0,0,4.9.4,9.7-.2,14.4-.3,2.8-1.7,7-3.6,7.7-3.8,1.5-8.7,2.7-12.2-1.6,0-25.8,0-51.6,0-77.3,1.8-.9,3.5-2.6,5.3-2.6,18.3-.2,36.6-.2,54.9,0,8.4.1,14.8,4.2,17.7,12.2,4.7,13.3,5.4,26.8-2.6,39.2-2.1,3.2-6.8,4.7-10.2,7-11.1-.2-22.2-.4-33.3-.6-4.8,0-9.7,0-14.5,0,0,.3,0,.6,0,1h46.7ZM860.1,588.9c.4-.5.7-1,1.2-1.6h-42.2c9.7.8,19.4.7,29.1.8,3.3,0,6.5.5,9.7.7h-39.8v19.8c14,0,27.7,0,41.5-.1,1.3,0,3.1-1.4,3.9-2.7,3.1-4.8,1.2-13.5-3.4-16.9Z"/>
  <path class="cls-12" d="M569.2,599.5c0-7.7,0-14.5,0-21.3,0-8.3,7.3-12.6,14.3-8.3,1.8,1.1,3.3,4.3,3.4,6.6.2,22.5.2,45,0,67.5,0,5.8-2.2,7.5-8.7,7.6-6.7,0-9-1.7-9.1-7.7-.2-7.8,0-15.6,0-23.7h-49c0,6.1,0,12.2,0,18.3,0,1.7.1,3.3,0,5-.3,6.3-2.1,8.1-8.2,8.1-7.4,0-9.6-1.6-9.7-8.1-.1-22.2-.1-44.3,0-66.5,0-6.4,2.4-8.1,9.9-7.9,5.9.1,7.8,2,7.9,8.3,0,6.2-.1,12.3.2,18.5,0,1.3,1.8,3.5,2.7,3.5,15.1.2,30.3.2,46.2.2Z"/>
  <path class="cls-1" d="M434,602.9c.1,5.1-.3,10.4.5,15.4,1.6,9.8,5.7,13,15.6,13.1,12.1.1,24.3,0,36.4,0,7.3,0,8.9,1.9,9,9.9,0,8.5-1.5,10.3-9,10.3-12.5,0-25,0-37.4,0-19.3,0-29.7-8.6-32.5-27.8-1.6-11.3-1.9-22.9,1.8-34.1,3-9.3,8.2-16.7,18.4-19.1.4.3.7,1,1.1.9,16.1-.2,32.2-.4,48.4-.6,1.8,0,3.5,0,4.8,0,.9,2.5,1.5,4.2,2.2,5.9,2.2,5.1-.9,10.1-6.3,10.1-13.3,0-26.6,0-40,0-1.8,0-3.7.2-5.3.9-6.8,2.7-8.1,8.5-7.7,15Z"/>
  <path class="cls-12" d="M637.8,592c-9.4,18.2-18.4,35.5-27.3,52.7-3.3,6.4-9,8.8-15.7,6.7-3.5-1.1-5-5.9-2.7-10.2,8.2-15.8,16.5-31.5,24.8-47.2,3.2-6.2,6.6-12.3,9.7-18.5,2.1-4.3,5.1-6.6,10.1-6.5,5.4,0,10,.4,12.9,6.1,11.1,21.6,22.5,43,33.6,64.5,1.1,2.1,1.5,4.7,1.5,7.1,0,1.4-1.1,3.3-2.3,4.1-4.3,3.1-14,.4-16.5-4.4-8.8-17-17.5-34-26.3-51-.4-.8-.9-1.6-1.9-3.3Z"/>
  <path class="cls-15" d="M888.1,610.2c0-10.8,0-21.6,0-32.4,0-7,1.9-8.7,9.1-8.7,6.6,0,8.7,1.9,8.7,8.6,0,21.8,0,43.6,0,65.4,0,7-2,8.7-9,8.7-6.9,0-8.7-1.8-8.7-9,0-10.8,0-21.6,0-32.4Z"/>
  <path class="cls-4" d="M716.7,677.1c5.7,0,11.3,0,17,0,3.1,0,4.4,1,4.5,4.3,0,3.3-1.2,5-4.6,5-8.2,0-16.3,0-24.5,0-2.5,0-5.6-.9-5.7,3.5-.1,4.3,2.7,4.3,5.6,4.3,6,0,12,.1,18,0,3.1,0,5,.7,5.1,4.4,0,3.7-1.6,4.5-4.9,4.5-6.7-.1-13.3,0-20-.1-3.3,0-3.8,1.6-3.9,4.3,0,2.9.8,4.2,4,4.2,8.5-.1,17,0,25.5,0,3.3,0,5.4.6,5.3,4.6,0,3.7-1.9,4.5-5,4.5-11.3,0-22.6,0-33.9,0-2.8,0-3.9-1.2-3.9-3.9,0-11.9-.4-23.9-.1-35.8,0-1.3,2.9-3.4,4.6-3.5,5.6-.4,11.3-.2,17-.2h0Z"/>
  <path class="cls-4" d="M882.2,720.4c-5.5,0-11-.2-16.5,0-2.9.1-4.7-.7-4.7-3.6-.2-12.1-.3-24.3,0-36.4,0-1.2,2.8-3.2,4.4-3.2,11.5-.3,23-.1,34.5-.2,2.6,0,4,.8,4.1,3.7.1,2.9-.4,5.1-3.8,5.3-3.8.2-7.6.3-11.5.3-5.2,0-10.4.4-15.4-.2-3.8-.4-4.1,1.5-4.4,4.2-.4,3.4,1.6,3.9,4.3,3.8,6.3-.1,12.6-.2,19-.3,3.2,0,6,.2,5.9,4.7,0,3.2-1.3,4.4-4.5,4.4-6.7-.1-13.3.2-20-.1-3.6-.1-4.6,1.4-4.8,4.6-.2,3.8,1.9,3.9,4.7,3.9,8.2,0,16.3,0,24.5,0,3.2,0,6-.2,6,4.4,0,4.9-3,4.7-6.3,4.7-5.2,0-10.3,0-15.5,0Z"/>
  <path class="cls-8" d="M928.5,720.4c-4.8,0-9.7-.1-14.5,0-3.7.1-3.9-2.1-3.9-4.8,0-2.7.6-4.4,3.9-4.3,8.7.1,17.3,0,26,0,2.8,0,5.5,0,5.6-3.9.1-3.9-2.3-4.6-5.6-4.5-6.8.1-13.6.1-20.5,0-6.3,0-9.1-2.8-9.4-9.1,0-.3,0-.7,0-1-.3-13.2,2.2-15.8,15.4-15.8,7,0,14,0,21,0,2.9,0,5.7-.2,5.9,4.1.3,4.4-2.5,5-5.6,5.1-7.2.2-14.3,0-21.5.1-1.5,0-3.3-.4-4.4.3-1.3.8-2.6,2.5-2.8,4-.1.9,1.7,2.9,2.8,3,7.1.4,14.3.5,21.4.6,7.7.1,10.4,2.5,11.2,10.2,1.1,11-3.1,15.9-14.2,16-3.7,0-7.3,0-11,0Z"/>
  <path class="cls-10" d="M781.8,706.7c1.4,1.7,3.3,4.2,5.3,6.5,1.7,1.9,4.9,4.2,1.8,6.3-1.8,1.2-6,.1-8.4-1.3-2.4-1.4-4.1-4.3-5.6-6.8-2.3-3.9-5.4-5.7-9.9-5-1,.1-2,0-3,0-8.8,0-8.7,0-9.2,8.9-.1,2.4.1,5.2-3.8,5.1-3.4,0-4.2-2.3-4.2-5,0-11.1.2-22.3,0-33.4,0-4.1,1.7-5.1,5.4-5,8.5.2,17,0,25.5,0,11.4,0,17.6,10.2,12.5,20.6-1.6,3.2-4.1,5.8-6.5,9ZM765.9,697.9h0c3.7,0,7.3,0,11-.1,4.1-.2,4.5-3.1,4.5-6.3,0-3.2-1-5.6-4.7-5.6-6.8,0-13.6-.1-20.4,0-1.1,0-2.9,1.1-3.2,2.1-2.2,6.6.2,9.9,6.9,9.9,2,0,4,0,6,0Z"/>
  <path class="cls-20" d="M548,706.7v12.9c-6.9,1.5-7.6.9-7.6-5.3,0-10.5.1-21,0-31.4,0-4.2,1.1-6,5.6-5.9,9,.3,18,0,26.9,0,7.3,0,10.2,2.5,11.5,9.7,1.6,8.8-.7,15.1-7.6,19.2,2.3,2.9,4.6,5.6,6.6,8.6.9,1.4,1,3.2,1.5,4.8-1.7.3-3.6,1-5.1.6-1.8-.4-4.1-1.5-4.9-3-5.3-10.1-13.9-12.2-24.2-10.7-.7,0-1.3.2-2.9.3ZM548.9,697.7c7.7,0,15.8.2,23.9,0,4.1-.2,4.2-3.7,4.1-6.8-.1-3-1.5-5.1-4.9-5.1-4.7,0-9.3,0-14,0q-10.9,0-9.7,11c0,.1.2.3.6,1Z"/>
  <path class="cls-10" d="M1060.4,698.8c0-5.7,0-11.3,0-17,0-3.4,1.2-4.9,4.7-4.8,8.7.1,17.3-.1,26,.1,7,.2,11,3.4,13.2,10.1,2.5,7.8,2.6,15.7-.3,23.5-2.1,5.8-7,9.5-13.1,9.6-8.7,0-17.3,0-26,0-3.2,0-4.5-1.3-4.4-4.5.1-5.7,0-11.3,0-17h0ZM1068.2,711.1c8,0,15.5.5,22.8-.3,2.3-.2,5.5-3.6,6.2-6.1,1-3.8.7-8.2,0-12.3-.7-4.3-3.9-6.5-8.2-6.6-5.8-.2-11.7-.2-17.5.1-1.2,0-3.2,1.6-3.2,2.6-.3,7.4-.1,14.9-.1,22.5Z"/>
  <path class="cls-10" d="M614.5,677.1c2.3,0,4.7,0,7,0,8.4.2,12.9,3.1,14.9,11.2,2.1,8.4,3.1,17.4-2.3,25-2.2,3.1-6.1,6.1-9.7,6.7-6.5,1-13.3.4-19.9,0-6.4-.3-10.4-4.3-12.2-10.1-2.4-7.8-2.6-15.8.3-23.5,2-5.4,5.8-8.9,11.9-9.1,3.3-.1,6.7,0,10,0,0,0,0-.1,0-.2ZM614,711.4c2,0,4,0,6,0,5,0,9-2.6,9.6-7.4.5-3.7.2-7.6-.4-11.3-.8-4.7-4.1-6.9-9-6.8-4.2,0-8.3,0-12.5,0-3.5.1-6.4,1.4-7.8,4.9-5.2,12.4.9,21.4,14.1,20.5Z"/>
  <path class="cls-20" d="M644.8,698.4c0-5.8,0-11.6,0-17.4,0-2.8,1.2-4,3.9-3.9,10.1,0,20.3.1,30.4.2.8,0,1.7,0,2.5.3,5.6,1.5,8,7.7,7.3,18.4-.5,6.8-3.4,10.8-9,11.2-6.6.5-13.3.4-19.9.4-7.1,0-7,0-7.4,7.1-.1,1.9-.8,4.6-2.1,5.4-3,1.8-5.8-.3-5.8-4.2-.1-5.8,0-11.6,0-17.4.1,0,.2,0,.3,0ZM652.3,699c8.5,0,16.1,0,23.8,0,4.3,0,5.2-2.8,5.1-6.4,0-3.4-.5-6.6-4.9-6.7-7-.1-14-.2-20.9,0-1.1,0-2.8,1.8-2.9,2.9-.4,3.1-.1,6.2-.1,10.1Z"/>
  <path class="cls-14" d="M497.9,707.6c0,3.3,0,6.1,0,8.8,0,2.6-.9,4-3.8,4.1-2.9.1-3.9-1.2-3.9-3.8,0-12,0-24,0-36,0-2.9,1.4-3.7,4-3.7,9.7,0,19.3,0,29,.1,6.6.2,9.6,3,10.6,9.6.4,2.5.7,5,.6,7.4-.4,9.8-4.3,13.4-14,13.4-7.3,0-14.6,0-22.6,0ZM498.7,698.9c7.4,0,14.9.1,22.3,0,4.6-.1,5.5-3.3,5.3-7.2-.1-3.9-1.8-5.8-5.7-5.8-4,0-8,0-11.9,0q-12,0-10.5,12c0,.1.1.3.6,1.1Z"/>
  <path class="cls-2" d="M1010.5,677.1c14,0,27.8-.1,41.6.2,1.1,0,3.2,3.1,3,4.4-.3,1.7-2.3,4.2-3.9,4.5-3.5.7-7.3.4-10.9.1-3.2-.2-4.4,1-4.3,4.3.2,8.3,0,16.6,0,24.9,0,2.9-.2,5.2-4.2,5.1-4.1-.1-3.5-2.8-3.5-5.2,0-7.8-.3-15.6,0-23.4.3-4.8-1.6-6.2-6-5.7-1.6.2-3.3,0-5,0q-8.2,0-6.9-9.2Z"/>
  <path class="cls-4" d="M816.7,677c5.7,0,11.3,0,17,0,2.8,0,5.5,0,5.7,3.8.2,3.5-1.3,5.3-5,5.1-2.8-.1-5.6.2-8.4,0-3.9-.2-5.9,1-5.8,5.3.2,8.3,0,16.6,0,25,0,2.3,0,4.3-3.3,4.3-3.2,0-4.4-1.4-4.4-4.6.1-8.3-.1-16.6.1-25,.1-4.1-1.7-5.3-5.3-5.2-2.8.1-5.6-.1-8.4,0-3.2.1-4.9-.6-4.9-4.4,0-4.1,2.1-4.6,5.3-4.5,5.8.1,11.6,0,17.5,0Z"/>
  <path class="cls-5" d="M802.6,475.4h25v25.1h-25v-25.1Z"/>
  <path class="cls-3" d="M802.6,535v-24.6h25v24.6h-25Z"/>
  <path class="cls-6" d="M793.1,475.1c0,8.1,0,15.6-.1,23,0,.9-1.4,2.5-2.2,2.5-7.4.2-14.9.1-22.9.1,0-8-.1-15.3.2-22.6,0-1.1,2.2-2.9,3.5-3,7.1-.3,14.3-.1,21.5-.1Z"/>
  <path class="cls-20" d="M984.2,711.4c9.8,0,19,.1,28.3,0,4.1,0,5.2,1.7,5,5.4-.2,2.8-1.4,3.8-4,3.7-10.8-.2-21.6-.4-32.4-.4-3.2,0-4.4-1.1-4.4-4.3.1-11.1,0-22.3,0-33.4,0-3,.6-5.3,4.3-5.3,3.9,0,3.3,2.9,3.3,5.3,0,9.4,0,18.9,0,29Z"/>
  <path class="cls-22" d="M793.6,534.7h-25.5v-24.6c7.6,0,15.2,0,22.8.1.9,0,2.5,1.7,2.5,2.6.2,7.3.1,14.5.1,21.9Z"/>
  <path class="cls-13" d="M434,602.9c-.3-6.5.9-12.3,7.7-15,1.6-.7,3.5-.9,5.3-.9,13.3,0,26.6,0,40,0,5.4,0,8.5-5,6.3-10.1-.7-1.6-1.2-3.4-2.2-5.9-1.3,0-3.1,0-4.8,0-16.1.2-32.2.4-48.4.6-.4,0-.7-.6-1.1-.9,2.7-.5,5.5-1.5,8.2-1.5,14.1-.2,28.2-.1,42.4-.1,5.9,0,8,2.1,8.2,8.1,0,1.7,0,3.3,0,5-.3,5.2-2.3,7.1-7.5,7.1-11.5,0-22.9,0-34.4,0-14.1,0-15.9,1.5-19.6,13.7Z"/>
  <path class="cls-20" d="M852.6,698.4c0,5.8,0,11.6,0,17.4,0,2.5-.5,4.7-3.8,4.6-3.1,0-3.9-1.9-3.9-4.6,0-11.3,0-22.6,0-33.9,0-2.5,0-5,3.8-5,3.7,0,3.9,2.2,3.9,4.9,0,5.5,0,11,0,16.4Z"/>
  <path class="cls-9" d="M801.9,571.7c0,25.8,0,51.6,0,77.3-.6-2.3-1.8-4.6-1.8-6.8-.1-21.4-.1-42.8,0-64.1,0-2.1,1.1-4.2,1.7-6.4Z"/>
  <path class="cls-7" d="M734.2,254.9c.4-.3.8-.6,1.6-1.4,0,1.7.2,3,.2,4.3,0,39,0,78,0,117,0,3.3.6,5.4,4,6.1-1.3.8-2.6,1.7-4.1,2.3-.3,0-1.1-1.5-1.7-2.2.3-1.6.8-3.2.9-4.7,0-38.2,0-76.3,0-114.5,0-1.6-.6-3.2-.9-4.7,0-.7,0-1.4,0-2.1Z"/>
  <path class="cls-16" d="M734.2,257c.3,1.6.9,3.2.9,4.7,0,38.2,0,76.3,0,114.5,0,1.6-.6,3.2-.9,4.7,0-3.6-.3-7.3-.3-10.9,0-36.2,0-72.4,0-108.6,0-1.5.2-3,.3-4.5Z"/>
  <path class="cls-13" d="M865.9,627.9h-46.7c0-.3,0-.6,0-1,4.8,0,9.7,0,14.5,0,11.1.2,22.2.4,33.3.6-.4.1-.7.3-1.1.4Z"/>
  <path class="cls-7" d="M860.1,588.9c-.7,0-1.4,0-2.1-.1-3.2-.3-6.5-.7-9.7-.7-9.7,0-19.4,0-29.1-.8h42.2c-.5.7-.9,1.2-1.2,1.6Z"/>
</svg>