<?xml version="1.0" encoding="UTF-8"?>
<svg id="Layer_1" data-name="Layer 1" xmlns="http://www.w3.org/2000/svg" version="1.1" xmlns:xlink="http://www.w3.org/1999/xlink" viewBox="0 0 250 250">
  <defs>
    <style>
      .cls-1 {
        fill: #59186a;
      }

      .cls-1, .cls-2, .cls-3, .cls-4, .cls-5, .cls-6, .cls-7, .cls-8, .cls-9, .cls-10, .cls-11, .cls-12, .cls-13, .cls-14, .cls-15, .cls-16, .cls-17, .cls-18, .cls-19, .cls-20, .cls-21, .cls-22, .cls-23, .cls-24, .cls-25, .cls-26, .cls-27, .cls-28, .cls-29, .cls-30, .cls-31 {
        stroke-width: 0px;
      }

      .cls-2 {
        fill: #fc8813;
      }

      .cls-3 {
        fill: #000;
      }

      .cls-4 {
        fill: #3b2279;
      }

      .cls-5 {
        fill: #33219e;
      }

      .cls-6 {
        fill: #57197c;
      }

      .cls-7 {
        fill: #af2c8e;
      }

      .cls-8 {
        fill: #361b85;
      }

      .cls-9 {
        fill: #4a1b88;
      }

      .cls-10 {
        fill: #013297;
      }

      .cls-11 {
        fill: #e98d33;
      }

      .cls-12 {
        fill: #57128f;
      }

      .cls-13 {
        fill: none;
      }

      .cls-14 {
        fill: #581e76;
      }

      .cls-15 {
        fill: #e88a2a;
      }

      .cls-16 {
        fill: #6a0a6e;
      }

      .cls-17 {
        fill: #a22f87;
      }

      .cls-18 {
        fill: #1b388c;
      }

      .cls-19 {
        fill: #65146c;
      }

      .cls-20 {
        fill: #301d7a;
      }

      .cls-21 {
        fill: #173a91;
      }

      .cls-22 {
        fill: #7b0480;
      }

      .cls-23 {
        fill: #421d80;
      }

      .cls-32 {
        clip-path: url(#clippath);
      }

      .cls-24 {
        fill: #a03b88;
      }

      .cls-25 {
        fill: #263477;
      }

      .cls-26 {
        fill: #670e80;
      }

      .cls-27 {
        fill: #621a7f;
      }

      .cls-28 {
        fill: #481d77;
      }

      .cls-29 {
        fill: #231b85;
      }

      .cls-30 {
        fill: #471898;
      }

      .cls-31 {
        fill: #6b0f7b;
      }
    </style>
    <clipPath id="clippath">
      <rect class="cls-13" x="15.3" y="16" width="219.4" height="212.5"/>
    </clipPath>
  </defs>
  <g class="cls-32">
    <g>
      <path class="cls-3" d="M-86.7-222.3h449.3V431.4H-86.7V-222.3ZM120.1,200.9c1.4.2,2.8.5,4.2.5,2,0,2.5-1.1,1.4-3-.1-4.5-.3-9.1-.3-13.6,0-4,0-8,0-12-3.7-.7-4-.6-4.5,1.5v5.1c-1.1-2.2-1.1-5.1-2.5-6.2-1.4-1.2-4-.6-6.5-.8,0,5.6,0,10.5,0,15.4,0,3.9,0,7.8,0,11.8,0,2.3,1.7,1.9,3,2,1.5,0,2.5-.3,2.5-2.3,0-2.6,0-5.2,0-7.8.1,0,.3,0,.4,0,.6,3,1.3,5.9,1.9,8.9l.4.7ZM66.7,199l.7-2.9c.7,0,1.4,0,2,0,.6,5.5.9,5.7,5.7,5.3.5,0,1,0,1.6,0,5.2,0,10.4.1,15.5,0,.7,0,1.9-1.3,1.9-2,0-6.3-.2-12.6-.3-18.9,0-.7,1-1.4,1.6-2.1.9.1,1.7.2,2.2.3,0,5.5,0,10.7,0,15.9,0,4.8,2.3,7.4,6.4,7.5,4.5.1,7.3-2.4,7.4-7.2.1-5.3.2-10.7,0-16,0-1.8-.8-4.2-2.1-5.3-3.5-3-7.2-2.4-10.9,1.2-.1-2.7-1.8-2.6-3.5-2.3h-10.2q-.5,5.4,3.4,6.4v16.4h-6.4c0-6.6,0-12.9,0-19.3,0-3.3-2.3-4.9-5.1-3.4-.5.3-.9,1.2-.9,1.9,0,2.1.3,4.2.4,6.2,0,4.5,0,9.1,0,13.6,0,1.4.1,2.9.2,4.3-.1,0-.3,0-.4,0-.1-.7-.3-1.4-.4-2.1,0-.6,0-1.2-.2-1.8-.8-2.4-2-4.7-2.4-7.1-.5-3.9-.7-7.8-.6-11.8,0-3-1-4-3.6-3.6-.6,0-1.3,0-1.9,0-1.6-.1-2.3.6-2.4,2.4-.1,2.2-.6,4.3-.9,6.5-.6,4.5-1.1,9-1.7,13.6-.3.9-.6,1.8-.8,2.8-.5,1.5-1.1,3.4,1.1,3.7,1.7.3,4.2,1.1,4.5-2.3ZM210.8,195.5c-2.2-.5-4.4-.9-6.6-1.4.2-1.4.5-2.7.5-4.1-.1-5.3-.3-10.6-.5-15.9,0-3.2-2.2-1.5-3.4-1.8-1.5-.3-2,.8-2,2.4,0,8,0,16.1,0,24.1,0,.8.8,2.2,1.2,2.2,3.4,0,6.8-.3,10.2-.5,1.3.2,2.6.6,3.9.7,1.5.2,3,0,2.7-2.4v-20.4c1.2-.1,2-.2,2.8-.3.4.9,1,1.8,1,2.7.1,4.3,0,8.7,0,13,0,8.3.1,8.4,7.7,7.5,3.9-.5,5-1.4,5.5-4.8.2-.5.5-1.1.5-1.6,0-5.6.2-11.3,0-16.9,0-1.6-1.3-3.1-2.1-4.6-1.4-.4-2.7-1.1-4.1-1.1-3.1-.1-6.1,0-9.2,0-3.3,0-6.6,0-9.9,0-2.5-.2-1.5,1.9-1.6,3.1,0,1.1-.7,3.1,1.6,2.7.5,0,1.1.1,1.6.2.1,1.7.4,3.4.3,5,0,4-.2,8-.4,12ZM131.6,61.1c.4.2.8.5,1.1.7.4.1.7.3,1.1.4,2.2.9,2.8,2.6,2.8,5.2-.1,10,0,20,0,30,0,2.5.5,4.3,2.6,5.8,2.5,1.8,4.6,4.2,7,6.2,1.3,1,2.8,1.6,4.4,2.5.3-9.4.7-18,.8-26.7.3-22.9.4-45.7.5-68.6,0-1.4-.5-3.3-1.4-4.1-.6-.5-2.5.5-3.5,1.3-6.6,5.2-13.2,10.5-19.8,15.8-1.8,1.3-3.5,2.8-5.4,3.9-1.7,1-2.6,2.6-2.6,4.5,0,5.3.2,10.6.4,15.9,0,.4.5,1,.9,1.3,3.7,2,7.3,3.9,11,5.9ZM123.6,149.2h.1c0-1.8,0-3.6.2-5.3.3-2.4-1-4.2-3.2-4.2-1.6,0-3.3,0-4.9,0-1.6,0-2.5.7-2.4,2.7.1,2.5,0,5,0,7.5-2,0-3,1.9-2,3.1,1.7,2.2.3,3.9.4,5.8,0,1,.6,2,.9,3,.9-.4,2.2-.6,2.7-1.3,1-1.5,1.5-3.3,2.6-5.8.1,1.4.2,2.1.2,2.8,0,1.3-.2,3.6.3,3.8,1.4.5,3,.5,4.4,0,.7-.2,1-1.9,1.5-3,.1-.2.3-.3.4-.5.4,1.1.8,2.1,1.4,3.6,1.4-.3,2.9-.7,4.7-1.1,2.4,2.1,3.5,2.2,6.5.3,4.6,3.5,4.5-1.9,6.2-4.4.1,1.3.2,2.1.2,2,1.3,1.2,2,2.1,2.9,2.6.7.5,1.6.7,2.4.8,1.1.1,2.2-.1,3.3.1,3.7.9,5.7-.8,5.1-5-.3-2.3-1.4-4.6-2.1-6.8-2.7-1-4,.7-4.6,2.8-.5-.9-1-2.7-1.7-2.8-1.3-.1-2.7.7-4.2,1.1-1-1.5-4.3-2.1-6.9-.8-.4.2-1,0-1.5-.1.6-3.4,1.1-6.8-.2-10.2-2.6,0-4.9,0-7.3,0-1.8,0-2.4.9-2.3,2.7,0,2.3,0,4.6,0,6.9-1.2-.1-2.7,2.4-3.6-.5.1,0,.3-.2.5-.2ZM171.3,173c-4.6-1.6-5.5-.9-5.5,4.2,0,6.5,0,13,0,19.6q0,4.8,4.3,4.6c.4-.2.8-.3,1.2-.5.1-2.6.3-5.3.4-7.9.2-.1.4-.3.5-.4,0,0,0,.2,0,.3.5,1.9.9,3.9,1.5,5.7.4,1,1.1,2.6,1.8,2.7,1.8.1,4.1,1.3,5.2-1.6,3.3,2.9,7.5,3.1,10.2.5,3-2.8,3-10.2,0-13.6-1.1-1.3-2.3-2.6-3.5-3.9,1.5-.7,2.6-.5,3.7-.7.7-.1,1.6-.7,1.8-1.3,1-3-1.2-7.4-4-8.5-3.7-1.4-6.7-.2-9.1,3.2,0-.9-.1-1.9-.1-2.4-5.4-2.8-6.1,2.1-7.8,5.2-.3-1.9-.6-3.6-.8-5.3ZM80.5,212.3c-2,1.8-.7,3.7,0,5.5,1,1.4,3.1,1.2,3.5,3.6,0,.5,2.5,1.3,3.3.9,1.2-.6,2.2-2,2.9-3.4,1.5-2.9,2.8-5.8,3.8-8.9.3-.8-.5-2.1-.7-3.1-.8.5-1.7.8-2.3,1.5-.8.9-1.3,2.2-2,3.4-.8-1.5-1.5-2.9-2.2-4.2-1.4,0-2.5-.6-3.7-.9-.6-.2-1.3,0-2,.1-.9,0-1.8-.1-1.9-.1-1-1.3-2-3.3-2.6-3.2-1.9.3-2.6,1.8-1.7,4,.2.6,0,1.4-.2,2.3-3.1-3.2-6.5-3.3-9.3-.6-2.6-2.6-5.4-1.7-8.1-1.1-.9-1.1-1.6-2.7-2.6-2.9-2.4-.6-5-.6-7.5-.6-.4,0-1.2,1.2-1.2,1.9-.1,3.4-.1,6.8,0,10.3,0,.7.7,1.9,1.1,2,.9.1,2.1-.1,2.8-.7.4-.4.2-1.7.3-3.4,1.1,1.3,1.7,2.2,2.5,2.9.7.6,1.6,1.3,2.5,1.4,1.7.2,3.4.2,5.1,0,1.6-.1,3.2-.6,4.7-.9.3,0,.7-.2,1-.2,2.1.3,4.2.8,6.3,1.1,1.6.2,2.3-.7,2.3-2.5,0-1.6.3-3.1.5-4.7.2.8.4,1.6.6,2.3-.2,1.5-.4,3-.5,4.5,2.5.7,3.4,0,3.3-2.4,0-1.3,0-2.6-.1-3.9.8-1.8,1.6-1.4,2.3,0ZM22.3,180.9v20.3c5.4.7,5.4.6,5.4-4.6,0-2.2,0-4.3,0-6.5.4,0,.9,0,1.3,0,.3,1.4.7,2.7.8,4.1.1,1.8,0,3.6,0,5.4,0,2.1,1.4,2.2,2.7,1.9,1.1-.2,3-.8,3-1.3,0-3-.3-6-.5-9-.1-2.2-.3-4.3-.3-6.5,0-2,.6-4,.5-5.9-.2-4.2-1.4-5.7-5-6.2-2.6-.3-5.2,0-8.1,0v4.8c0,1.2,0,2.4,0,3.6ZM186.5,214.8c0-1.6,0-3.2,0-4.8,0-1.1,0-2.2.1-3.3,0-2.6-1.1-3.1-3.2-2.4-.3,2.9-.7,5.6-1,8.4h-.8c.1-1.8.3-3.4.3-5.1,0-.9,0-2.1-.5-2.7-.4-.6-1.8-1.1-2.2-.7-.5.4-.6,1.7-.8,2.6-.1.6,0,1.2,0,1.9-2.3-.4-4.3-.8-6.3-1.2-.2-1.1-.4-2.2-.7-3.4-1,0-1.9.2-2.9.3,0,4.4,0,8.5,0,12.6,0,.7.8,2,1.1,2,3.1-.2,6.6,1.5,9.2-2.5,0,3.2,1.2,3.1,2.8,2.3.2-1.5.3-2.8.5-4,.3,0,.6,0,.9,0,.2,1.4.4,2.8.6,4.1,3.1.3,3.1.2,2.9-3.9ZM204.8,215.4c-.3,2.9.6,3.7,3.4,3.5,6.8-.3,13.6,0,20.4.1,1.6,0,2.6-.7,2.4-2.3,0-.7-1.3-1.8-2.1-1.8-6.1-.3-12.2-.4-18.3-.4-2,0-3.9.6-5.9,1,.8-2.4,1.6-4.9,2.5-7.7h-2.7c-1.2,1.7-2,3-3.1,4.5-.8-1.7-1.5-3-2-4-1.2-.3-2.7-.2-3.2-.9-1.8-2.4-3.4-2-5.3.7,0-1.2,0-1.6,0-2.1,0-.6,0-1.2-.1-1.7-3.6-.2-3.7-.2-3.7,1.8,0,4.3.4,8.5.5,12.7,2.5.7,3.3-.2,3.3-2.4,0-1.6.1-3.1.2-4.7.3,0,.5,0,.8-.1,0,3.5-.3,7.3,3.8,8.3.2,0,.2.5.4.8,2.2,3,5.1,2.6,6.6-.9.6-1.4,1.3-2.8,1.9-4.2ZM155.9,65.9c-.2.4-.3.8-.5,1.2,0,15.3-.1,30.7,0,46,0,2.1.4,4.8,1.6,6.1,3.8,3.8,8,7.1,12.2,10.5.7.6,2,1,2.8.7.6-.3,1-1.8,1-2.8,0-15.9,0-31.9,0-47.8-.4-1.2-.6-2.7-1.4-3.5-4.2-4.4-8.5-8.7-12.8-12.9-.4-.4-1.9-.4-1.9-.2-.3.8-.3,1.8-.3,2.6-.2,0-.3,0-.5,0ZM137.8,183.9v-11.2h-6c0,9,0,17.8,0,26.5,0,.7,1.3,2.1,2,2.1,4.8.2,9.6.2,14.5,0,.6,0,1.7-1.2,1.7-1.9,0-7.4-.2-14.9-.3-22.3,0-1.5,0-3,0-4.6h-5.5v22.7h-6c-.1-3.8-.3-7.6-.4-11.4ZM90.9,79.7c-1.6,1.6-3.3,3.2-4.9,4.8-2.4,2.3-4.9,4.6-7.1,7-.8.9-1.5,2.3-1.6,3.5-.1,10.9,0,21.8,0,32.7,0,2.9,1.5,3.8,3.7,2.1,2.4-1.8,4.7-3.9,7.1-5.9,7.5-6.4,15.1-12.8,22.5-19.4,2.2-1.9,5.1-3.3,4.8-7.7-.4-6.1,0-12.3,0-18.4,0-5.4,0-10.9,0-16.3,0-1.1-.6-2.7-1.4-3.2-.5-.4-2,.4-2.8,1.1-2.3,2-4.4,4.2-6.5,6.4-4.5,4.5-9,8.9-13.5,13.4ZM104.7,53.8c1.4-.4,2.8-.8,4.1-1.3q6.6-2.3,6.3-10.2c0-.1,0-.2,0-.3,0-2.1-1-2.9-2.8-2.8-1.7.2-3.4.3-5.1.7-12.8,3.3-23.9,9.9-33.2,20-6.9,7.6-12.5,16.3-16.1,26.4-4.6,12.7-7.3,25.9-5.5,39.7.4,3,1,5.9,1.6,8.8.5,2.3.9,4.6,1.6,6.8,2.2,7.2,2.8,7.7,9.1,2.8,1.7-1.4,2.4-3.3,2-5.5-.8-5.2-1.8-10.4-2.7-15.6-1.4-8.6-.5-17,1.6-25.3,3.1-12.8,10.1-22.9,19-31.5,2.9-2.8,6.4-5,9.8-7.1,3.3-2.1,6.9-3.8,10.4-5.7ZM196.6,129.4c.5-2.1,1.4-4.1,1.5-6.2.6-12-.3-23.8-3.8-35.3-3.5-11.5-9.2-21.7-17.6-29.7-1.7-1.6-3.7-2.7-5.3-4.4-4.4-4.5-9.8-6.6-15.3-8.5-.5-.2-2.1,1.2-2.2,2-.3,2.5-.2,5,0,7.5,0,.8.6,1.7,1.2,2.2,3.2,2.2,6.4,4.2,9.6,6.3.8.6,1.5,1.3,2.3,1.9.5.6,1.1,1.2,1.6,1.8,2.6,3.2,5.5,6.1,7.7,9.7,8,13.1,12.8,27.4,11,43.6-.6,5.7-1.4,11.3-2.5,16.9-1.1,5.3.6,8.8,5.9,10.2.5-.3,1.3-.4,1.5-.9,1.2-3,2.3-6.2,3.5-9.2.4-2.7.7-5.3,1.1-8ZM195.5,157.2c-4.3-3.8-8.6-7.6-12.9-11.4-6.2-5.5-12.4-10.9-18.6-16.4-5.7-5-11.5-10-17.1-15.1-6.2-5.5-12.3-11.1-18.5-16.6-1.5-1.3-3.3-1.7-5-.1-1.7,1.6-3.5,3.1-5.3,4.6-9,7.9-18,15.9-27.1,23.7-11,9.6-22.2,19.1-33.2,28.7-1.6,1.4-2.8,3.4-4.2,5,.8.6,1.5,1.5,2.3,1.7,1.7.4,3.4.5,5.1.5,5.5-.1,11.3,2,16.1-2.8,1.2-1.2,2.5-2.2,3.8-3.3,6.1-5.3,12.3-10.7,18.4-16,4.6-4,9.2-8,13.7-12,.1.2.3.3.4.5,0,1.8-.2,3.7,0,5.4.2,1,1.1,2.6,1.8,2.7,2.4.4,4.9.2,7.4.2.4,0,1.1-.7,1.1-1.1,0-2.5.1-5-.2-7.5,0-.6-1.4-1.4-2.2-1.5-2-.2-3.9,0-5.9,0-.1-.2-.2-.5-.3-.7,3.3-2.8,6.6-5.7,10-8.3.4-.3,1.6,0,2.1.5,3,2.6,5.9,5.4,9.3,8.6-2.9,0-5,0-7.2,0-1.7,0-2.3.7-2.2,2.5.1,9.5-1.2,7.5,7,7.8.2,0,.4,0,.5,0,1.6,0,2.5-.8,2.4-2.8-.1-2.1,0-4.3,0-6.8,1.1.8,1.8,1.2,2.5,1.8,11.7,10.5,23.4,20.9,35.2,31.4.7.6,1.8,1.2,2.7,1.2,6.1.1,12.3,0,18.4,0,1.5,0,2.4-.6,1.3-2.4l-1.1-1.2c-.2-.2-.4-.4-.6-.6ZM48.2,174.5c-2.2-2.6-6-3.4-8.6-2.3-3.1,1.3-3.7,3.9-3.7,7.2,0,5,0,10.1,0,15.1,0,4.3,2.3,7.4,5.6,7.5,4.9.2,7.6-2.4,7.6-7.5,0-5.4,0-10.9,0-16.3,2.7,6.2,4.4,12.5,3.9,19.4-.3,3.6,1.8,5,4.8,3.7.5-.2,1-1.4.9-2-.6-4.2-.7-8.3.7-12.4,1-3.1,1.9-6.2,2.8-9.4,1.5-5.2,1.5-5.3-3.6-5-.2,0-.3.1-.6.2-.7,1.9-1.4,3.9-2.3,6.3-.5-2.1-.8-3.7-1.4-5.3-.8-2.2-5.4-1.7-6.3.8ZM126.1,203.6c-1.3.4-3,.5-3,.9-.5,4.1-4,3-6,4.3-.5.3-1.4.6-1.6.4-2.6-3.3-5.9-1-8.8-1.7-.2,1.3-.3,2.3-.5,3.8-1.9-3.6-5.4-4.8-8.4-3.1-.7.4-1.3,2.5-1.1,2.6,1.3,1,.4,2.1.1,3-.9,3.3.2,5.2,3.3,5.1,2,0,4.2-1.3,5.8-.6,4.4,2,3.5-1.2,3.7-3.8.1-1.2.8-2.4,1.2-3.6.4,0,.8.2,1.2.3,0,1.5,0,3.1.3,4.6.2,1.1.7,2,1.1,3,.9-.5,1.9-.9,3.1-1.5,2.2,2.8,5.5,1.1,8.4,1.4.3,0,1-1.2,1-1.8,0-4.2,0-8.4,0-13.4ZM151.1,218.7c2.9.3,3,.1,3.1-2.4,0-3,0-6,0-9.1,0-1.1-.4-2.3-.9-3.3-.1-.3-2,0-2.1.4-.5,1.6-.6,3.3-.9,5,0-.3-.2-.6-.3-.9-2.9-.2-5.9-.3-9.1-.5-.8-2.8-7-5.3-9.8-3.2-.4.3-.6,1.2-.6,1.8,0,3.3-.1,6.6,0,10,0,.8.9,1.6,1.4,2.4.6-.7,1.5-1.2,1.8-2,.6-2,1.3-2,2.4-.6.5.7,1.1,1.4,1.7,1.9,1.4,1.3,2.7,1.2,3.2-.1,2.3.3,4.5,1.1,6.4.7,1.3-.3,2.2-2.4,3.3-3.8,0,1,.2,2.3.3,3.7ZM156.3,201.4v-10.7c1.1,1.9,2,3.9,2.2,6,.7,5,1.6,5.8,6.4,4.2v-28.7c-1.8.2-4.2,0-4.6.7-.7,1.6-.2,3.8-.2,6.8-.6-1.2-1-1.7-1.1-2.2-1.1-5.5-1.1-5.5-6-5.1-1.6.1-2,.6-2,2.6.2,8,0,16.1-.1,24.1,0,1.6.3,2.3,1.7,2.3,1.1,0,2.2,0,3.6,0ZM98.8,150.8c0,.3-.1.5-.2.8-.8-.4-1.6-.8-2.5-1.1-3.6-1.4-4.7-.5-4.7,3.6,0,1.3,0,2.6,0,3.9-.2,2.6.6,3.8,3.1,3.5,1.7-.2,3.5-.4,5.2-.3,2.1.1,4.3.8,6.4.8.8,0,1.9-.9,2.2-1.7,1.1-3.3-.2-6.1-2.6-6.9-.8-1.4-1.3-3.1-1.8-3.2-1.7-.2-3.4.3-5.1.6ZM168,213.9c0-.6.2-1.3,0-1.8-.5-1.5-1-3.9-1.9-4.1-2-.5-4.2.1-6.2.4-.3,0-.6.8-.6,1.2,0,2.2-.4,4.4,0,6.5.2,1.1,1.6,2.6,2.5,2.7,2,0,4.1-.6,6.1-1.1.1,0,.1-.9.1-1.4,0-.8,0-1.6,0-2.4ZM155.5,218.7c2.8.3,3,.2,3.1-2.6,0-3.3,0-6.6,0-10,0-.9-.3-1.9-.5-2.8-.3-.1-.5-.3-.8-.4-.8,1-2.3,2-2.3,2.9,0,4.3.3,8.5.6,12.8Z"/>
      <path class="cls-17" d="M113.1,127.8c-4.6,4-9.2,8-13.7,12-6.1,5.3-12.3,10.7-18.4,16-1.3,1.1-2.6,2.1-3.8,3.3-4.8,4.8-10.6,2.7-16.1,2.8-1.7,0-3.5-.1-5.1-.5-.8-.2-1.5-1.1-2.3-1.7,1.6-.6,3.2-1.3,4.8-1.9.2.3.4.8.7.9,4.1.5,8.1,1,12.2,1.4.5,0,1.2-.5,1.6-1,2.9-2.7,6.4-4.4,9.1-7.6,3.1-3.7,7.2-6.4,10.9-9.5,2.5-2.1,5-4.3,7.5-6.5,4.7-4.1,9.3-8.3,14.1-12.3,3.1-2.6,6.6-4.7,9.4-7.7,2.3-2.4,3.5-1.5,5.1.4.3.4.7.6,1.1,1,6,5.3,12.1,10.6,18.1,15.9,5.1,4.5,10.2,9,15.3,13.5,3.9,3.5,7.9,6.8,11.7,10.5,1.6,1.6,3.1,2.3,5.1,2.3,3.5,0,6.9.3,10.4.4.7,0,1.4-.7,2-1,1.5.2,2.9.4,4.4.6,1.1,1.8.2,2.4-1.3,2.4-6.1,0-12.3,0-18.4,0-.9,0-1.9-.6-2.7-1.2-11.7-10.4-23.5-20.9-35.2-31.4-.6-.6-1.3-1-2.5-1.8,0,2.5,0,4.7,0,6.8.1,2-.8,2.7-2.4,2.8-.2,0-.4,0-.5,0-8.2-.2-6.9,1.7-7-7.8,0-1.8.6-2.6,2.2-2.5,2.2,0,4.3,0,7.2,0-3.4-3.2-6.3-6-9.3-8.6-.5-.5-1.7-.8-2.1-.5-3.4,2.7-6.7,5.5-10,8.3.1.2.2.5.3.7,2,0,4-.1,5.9,0,.8,0,2.1.9,2.2,1.5.3,2.5.2,5,.2,7.5,0,.4-.7,1.1-1.1,1.1-2.5,0-5,.2-7.4-.2-.7-.1-1.6-1.7-1.8-2.7-.3-1.8,0-3.6,0-5.4.1-.3.3-.6.4-.9-.3.1-.5.3-.8.4Z"/>
      <path class="cls-25" d="M124.4,158.5c-.5,1-.8,2.7-1.5,3-1.4.5-3.1.4-4.4,0-.4-.2-.2-2.5-.3-3.8,0-.7-.1-1.4-.2-2.8-1.1,2.4-1.6,4.3-2.6,5.8-.5.8-1.8.9-2.7,1.3-.3-1-.9-2-.9-3,0-1.9,1.4-3.7-.4-5.8-1-1.2,0-3.1,2-3.1,3.2-.1,6.4-.3,9.6-.4.9,2.9,2.4.3,3.6.5,3.3.2,6.6.4,9.8.5.5,0,1.1.3,1.5.1,2.6-1.3,5.9-.7,6.9.8,1.6-.5,2.9-1.3,4.2-1.1.7,0,1.2,1.8,1.7,2.8.6-2.1,1.9-3.8,4.6-2.8.7,2.3,1.7,4.5,2.1,6.8.6,4.2-1.4,5.9-5.1,5-1-.3-2.2,0-3.3-.1-.8-.1-1.7-.4-2.4-.8-.9-.6-1.6-1.4-2.9-2.6,0,0,0-.7-.2-2-1.7,2.5-1.6,7.9-6.2,4.4-3,1.9-4.1,1.8-6.5-.3-1.8.4-3.3.8-4.7,1.1-.6-1.5-1-2.5-1.4-3.6-.2-.1-.4-.3-.6-.4l.2.9Z"/>
      <path class="cls-24" d="M197.1,159.1c-1.5-.2-2.9-.4-4.4-.6-4.8-4.4-9.6-8.9-14.5-13.2-7.5-6.6-15.2-13-22.7-19.6-5.7-5-11.2-10.2-16.8-15.2-3.9-3.5-7.8-6.9-11.8-10.2-.6-.5-1.8-.7-2.3-.4-3.2,2.4-6.4,4.9-9.5,7.6-5.9,5-12,9.7-17.4,15.4-6,6.3-13.2,10.7-19.2,17.1-6.2,6.5-13.3,11.9-20.1,17.8-1.6.6-3.2,1.3-4.8,1.9,1.4-1.7,2.6-3.6,4.2-5.1,11-9.6,22.1-19.1,33.2-28.7,9.1-7.9,18.1-15.8,27.1-23.7,1.8-1.5,3.5-3.1,5.3-4.6,1.7-1.6,3.5-1.1,5,.1,6.2,5.5,12.3,11.1,18.5,16.6,5.7,5.1,11.4,10,17.1,15.1,6.2,5.5,12.4,10.9,18.6,16.4,4.3,3.8,8.6,7.6,12.9,11.4,0,.3,0,.5-.1.8.2,0,.5,0,.7-.1.4.4.7.8,1.1,1.2Z"/>
      <path class="cls-31" d="M48.2,174.5c.9-2.6,5.5-3.1,6.3-.8.5,1.6.9,3.2,1.4,5.3.9-2.4,1.6-4.4,2.3-6.3.3,0,.4-.2.6-.2,5.1-.3,5.1-.2,3.6,5-.9,3.1-1.8,6.3-2.8,9.4-1.4,4.1-1.3,8.2-.7,12.4,0,.6-.4,1.8-.9,2-3,1.4-5.1-.1-4.8-3.7.5-6.9-1.3-13.2-3.9-19.4,0,5.4,0,10.9,0,16.3,0,5.1-2.7,7.7-7.6,7.5-3.3-.1-5.6-3.2-5.6-7.5,0-5,0-10.1,0-15.1,0-3.3.6-5.9,3.7-7.2,2.7-1.1,6.4-.3,8.6,2.3ZM44.2,174.8c-1-2.5-2.4-2.2-3.9-.6-.1,0-.3,0-.4,0-.4.2-.8.4-1.2.6-.5,3.3-1.2,6.5-1.5,9.8-.4,4.5-.8,9.1,1.7,13.1,1.2,1.9,2.8,2.2,4.6,1.5,1-.4,1.9-1.4,2.8-2.1-.2,0-.3-.2-.5-.3-1.3.3-2.6.6-3.9.9-1.7-2.7-1.8-5.7-1.7-8.8.1-2.7,0-5.4,0-8.1,0-3.6.5-4,3.8-4.3.2.2.4.4.6.6,0,2.9,0,5.8,0,8.7,0,2.7.4,5.5.6,8.2,2.1.8,2.2-.8,2.1-2.3-.3-5.7-.7-11.4-1.1-17.1-.4,0-.7,0-1.1,0-.4,0-.8,0-1.1,0ZM42.5,178.1c-.3,0-.6.2-1,.3,0,5.3,0,10.6,0,15.8,0,.3.7.7,1.1,1,.3-.6.9-1.1.9-1.7,0-4.4,0-8.9,0-13.3,0-.7-.7-1.5-1-2.2Z"/>
      <path class="cls-15" d="M195.5,137.4c-1.1,3.1-2.2,6.2-3.5,9.2-.2.5-1,.6-1.5.9-.4-1-.7-2-1.1-2.9.8-.7,1.9-1.2,2.3-2.1.8-1.8,1.2-3.8,1.7-5.7,2.2-8.7,3.4-17.6,2.1-26.6-1.1-7.6-1.7-15.5-3.9-22.7-3.2-10.1-8.3-19.3-15.7-26.6-5-5-10.4-9.2-16.8-11.8-1-.4-2.4,0-3.5,0,.2,1.7.2,3.5.6,5.2.1.6,1.1,1,1.7,1.5,1.2.8,2.5,1.4,3.5,2.3,3.3,2.9,6.5,6,9.8,9-.9,0-1.8,0-2.7,0-.5-.6-1.1-1.2-1.6-1.8l-2.3-1.9c-3.2-2.1-6.5-4.1-9.6-6.3-.6-.4-1.1-1.4-1.2-2.2-.1-2.5-.2-5.1,0-7.5,0-.8,1.7-2.2,2.2-2,5.5,1.8,11,4,15.3,8.5,1.6,1.7,3.7,2.8,5.3,4.4,8.5,8,14.1,18.1,17.6,29.7,3.5,11.4,4.4,23.3,3.8,35.3-.1,2.1-1,4.1-1.5,6.2-.4,2.7-.7,5.3-1.1,8Z"/>
      <path class="cls-15" d="M54,134.9c-.5-2.9-1.2-5.9-1.6-8.8-1.8-13.8.8-26.9,5.5-39.7,3.7-10,9.2-18.8,16.1-26.4,9.3-10.2,20.4-16.8,33.2-20,1.7-.4,3.4-.5,5.1-.7,1.8-.2,2.8.7,2.8,2.8,0,.1,0,.2,0,.3q.3,7.8-6.3,10.2c-1.4.5-2.7.9-4.1,1.3-.6-.4-1.1-.8-1.7-1.3,2.4-.9,4.9-2.5,7.3-2.6,2.4-.1,2.8-1.4,2.9-3.3,0-1.5-.3-3.1-.5-5.3-2.1.5-3.9,1-5.7,1.3-10.3,2-19,7.7-26.9,14.8-6.1,5.5-11.1,12.3-15.4,19.9-6.6,11.8-10.1,24.6-10.7,38.2-.2,6.2,1,12.4,1.5,18.6-.6.2-1.1.4-1.7.6Z"/>
      <path class="cls-19" d="M74.9,211.9c-.2,1.6-.5,3.1-.5,4.7,0,1.8-.7,2.7-2.3,2.5-2.1-.3-4.2-.7-6.3-1.1-.3,0-.7.1-1,.2-1.6.3-3.1.8-4.7.9-1.7.2-3.4.2-5.1,0-.9-.1-1.8-.8-2.5-1.4-.8-.7-1.4-1.6-2.5-2.9-.1,1.7.1,3.1-.3,3.4-.7.6-1.9.8-2.8.7-.5,0-1.1-1.3-1.1-2-.1-3.4-.1-6.8,0-10.3,0-.7.8-1.9,1.2-1.9,2.5,0,5.1,0,7.5.6,1,.2,1.7,1.9,2.6,2.9,2.7-.7,5.6-1.5,8.1,1.1,2.8-2.7,6.1-2.6,9.3.6,0-.9.4-1.8.2-2.3-.9-2.2-.1-3.7,1.7-4,.6-.1,1.5,1.8,2.6,3.2.2,0,1,0,1.9.1-2,1.7-4.1,3.4-6.1,5ZM53.5,209.5c-.6-.4-1.1-.9-1.7-1.3,0-.4,0-1.1,0-1.1-1,0-2.1,0-3.3.1.1,1.7,0,3.3.5,4.4.4.8,1.9.9,2.9,1.3,0-.4,0-.8,0-1.2.6-.4,1.1-.9,1.7-1.3.3-.1.7-.2,1-.3-.3-.2-.7-.4-1-.6Z"/>
      <path class="cls-18" d="M90.9,79.7c4.5-4.5,9-8.9,13.5-13.4,2.2-2.1,4.3-4.4,6.5-6.4.8-.7,2.3-1.4,2.8-1.1.8.6,1.3,2.1,1.4,3.2.1,5.4,0,10.9,0,16.3,0,6.1-.3,12.3,0,18.4.3,4.4-2.6,5.7-4.8,7.7-7.4,6.6-15,13-22.5,19.4-2.3,2-4.6,4.1-7.1,5.9-2.2,1.7-3.7.8-3.7-2.1,0-10.9,0-21.8,0-32.7,0-1.2.8-2.6,1.6-3.5,2.3-2.5,4.7-4.7,7.1-7,.6.2,1.1.4,1.7.6-2.2,2.4-4.5,4.7-6.4,7.3-1,1.3-1.7,3.2-1.8,4.9-.2,5.1,0,10.3,0,15.4,0,4.8,0,9.5,0,14.3.3.2.5.4.8.6,1.7-1.4,3.4-2.7,5-4.2,4.8-4.1,9.6-8.2,14.4-12.4,3.7-3.3,7.3-6.9,11.1-10,1.8-1.5,3.4-2.8,3.4-5.3,0-10.8-.3-21.6-.5-32.3,0-.2,0-.5,0-.6-.6-.3-1.6-1-1.8-.7-3.6,3.3-7.1,6.8-10.7,10.2-3.1,2.9-6.2,5.7-9.4,8.6-.2-.4-.4-.8-.6-1.3Z"/>
      <path class="cls-21" d="M127.2,29.5c6.6-5.3,13.1-10.6,19.8-15.8,1-.8,3-1.7,3.5-1.3.9.7,1.4,2.7,1.4,4.1-.1,22.9-.3,45.7-.5,68.6-.1,8.6-.5,17.3-.8,26.7-1.6-.9-3.1-1.4-4.4-2.5-2.4-2-4.5-4.4-7-6.2-2.1-1.5-2.6-3.3-2.6-5.8,0-10,0-20,0-30,0-2.6-.6-4.3-2.8-5.2,1.3,0,2.5,0,3.8,0,0,1,0,2,.1,3,.2,3.4.4,6.8.4,10.2,0,3.3.2,6.7,0,10-.4,5.1-1.6,10.4,1.7,14.8,2.4,3.2,5.5,5.9,8.9,9.4.4-1.8,1-3.2,1-4.6,0-3.4-.4-6.7-.4-10.1,0-13.1,0-26.2.2-39.4,0-12.6.2-25.2.3-37.8,0-.8,0-1.6-.2-3.2-4.2,3.1-8.1,5.8-11.8,8.8-3,2.4-5.9,5-8.9,7.5-.5-.4-1.1-.8-1.6-1.3Z"/>
      <path class="cls-8" d="M180,175.4c2.4-3.4,5.3-4.6,9.1-3.2,2.8,1,5,5.5,4,8.5-.2.6-1.1,1.2-1.8,1.3-1,.2-2.2,0-3.7.7,1.2,1.3,2.3,2.6,3.5,3.9,3,3.4,3,10.8,0,13.6-2.7,2.6-6.9,2.4-10.2-.5-1.1,2.9-3.4,1.7-5.2,1.6-.7,0-1.4-1.7-1.8-2.7-.7-1.9-1-3.8-1.5-5.7,0,0,0-.2,0-.3-.2.1-.4.3-.5.4-2.6,2.5-1,5.2-.4,7.9-.4.2-.8.3-1.2.5-.9-.8-1.8-1.6-2.7-2.4,1.6.2,2.2-.7,2.1-2.3,0-1.4,0-2.8-.1-4.2-.1-1.4,1.8-5.2,2.3-4.8,1,.9,1.8,2.3,2.5,3.6.4.7.3,1.6.5,2.3.6,2,1.3,3.9,2,5.8.2-.1.4-.2.6-.3,0-1.6,0-3.2,0-4.9.6,1.5,1.3,2.9,2.2,5,.3-1.1.4-1.5.6-1.9-.1-1.2-.4-2.4-.4-3.5,0-.8.3-1.9.8-2.3,2.1-1.4,4.7.2,5.2,2.9,0,.4.4.7.6,1.1.3,0,.6-.1.9-.2-.2-1.1,0-2.4-.6-3.2-1.2-1.7-2.7-3.2-4.1-4.7-3.1-3.4-2.4-7.8-2.4-11.9h0ZM183.6,176.7c-.3,0-.7,0-1-.1-.2,1.2-.8,2.5-.6,3.7.4,3.2,1.9,5.8,4.3,7.7,1.1.9,2.3,2.2,2.7,3.6.6,2,1.2,4.7-1.1,5.9-2.1,1.1-4.1.2-4.9-2.6-.1-.4-.2-.8-.4-1.1-.8,3.1.9,5.5,3.3,5.8,2.5.3,4.9-1.9,5-4.9,0-2.5-.5-4.8-2.4-6.7-3-2.9-6.3-5.9-4.9-11.3ZM188.7,176c0-.3.1-.6.2-1-.9-.2-1.7-.4-2.6-.6,0,.3-.1.6-.2.9.9.2,1.7.5,2.6.7ZM186.2,181.3c.2,0,.5,0,.7,0v-3.2c-.2,0-.5,0-.7,0v3.2ZM190.4,177.2c-.3,0-.6.2-.9.3.2.6.4,1.3.6,1.9.2,0,.5-.2.7-.3l-.4-1.9Z"/>
      <path class="cls-11" d="M54,134.9c.6-.2,1.1-.4,1.7-.6,1.2,3.9,2.4,7.8,3.7,12,1.4-1.5,2.4-2.7,3.5-3.6,1.4-1.1,1.5-2.2,1.1-4.1-1.1-4.9-2.3-10-2.6-15-.4-8.1-.2-16.1,1.7-24.2,2.2-9.3,6-17.4,11.1-25,4.8-7.2,11.4-12.1,18.2-16.7,3.3-2.2,7.1-3.4,10.7-5.1.6.4,1.1.8,1.7,1.3-3.5,1.9-7,3.6-10.4,5.7-3.4,2.1-6.9,4.3-9.8,7.1-8.9,8.6-15.8,18.7-19,31.5-2,8.3-3,16.7-1.6,25.3.9,5.2,1.9,10.4,2.7,15.6.4,2.2-.3,4.1-2,5.5-6.2,4.9-6.8,4.4-9.1-2.8-.7-2.2-1.1-4.5-1.6-6.8Z"/>
      <path class="cls-14" d="M126.1,203.6c0,5,0,9.2,0,13.4,0,.6-.7,1.8-1,1.8-3-.2-6.3,1.4-8.4-1.4-1.2.6-2.1,1-3.1,1.5-.4-1-1-2-1.1-3-.2-1.5-.2-3-.3-4.6-.4,0-.8-.2-1.2-.3-.4,1.2-1.1,2.4-1.2,3.6-.3,2.5.6,5.8-3.7,3.8-1.6-.7-3.8.6-5.8.6-3.1,0-4.2-1.8-3.3-5.1.2-.9,1.2-1.9-.1-3-.1-.1.5-2.3,1.1-2.6,3-1.7,6.5-.5,8.4,3.1.2-1.5.3-2.5.5-3.8,2.9.7,6.2-1.6,8.8,1.7.2.2,1.1,0,1.6-.4,2-1.3,5.5-.2,6-4.3,0-.4,1.7-.5,3-.9ZM122,210.8c-.6,0-1.1-.2-1.7-.3-.2,1.3-.5,2.6-.6,3.9,0,.1,1.3.3,2,.5.1-1.4.2-2.8.3-4.2Z"/>
      <path class="cls-9" d="M138.3,195.3h6v-22.7h5.5c0,1.6,0,3.1,0,4.6.1,7.4.3,14.9.3,22.3,0,.6-1.1,1.8-1.7,1.9-4.8.2-9.6.2-14.5,0-.7,0-2-1.3-2-2.1-.1-8.7,0-17.5,0-26.5h6c0,3.7,0,7.4,0,11.2-.2,3.5-.3,6.9-.4,10.4,0,.3.6.7.9,1ZM133.9,196c-.8,1.7-1.3,3.7,1,4.1,2.3.4,4.7,0,7.1,0,0,0,.1-.7.2-1.1-2.8-1-5.5-2-8.3-3ZM136,177.8c0-1.2.1-2.5,0-3.6,0-.2-1.5-.5-1.6-.3-.5,1.1-1,2.2-1.1,3.4-.2,2.7-.1,5.4,0,8.1,0,3,.3,5.9.5,8.9,1.8.5,2.2-.6,2.2-2.3,0-4.7,0-9.4,0-14.1Z"/>
      <path class="cls-21" d="M172.8,79.8c0,15.9,0,31.9,0,47.8,0,1-.4,2.5-1,2.8-.7.3-2,0-2.8-.7-4.1-3.4-8.4-6.7-12.2-10.5-1.2-1.2-1.6-4-1.6-6.1-.1-15.3,0-30.7,0-46,.2-.4.3-.8.5-1.2.2,0,.3,0,.5,0,.6.2,1.1.4,1.7.6-.2,1-.5,1.9-.5,2.9,0,14.8,0,29.6,0,44.4,0,1.2.5,2.9,1.4,3.7,3.3,3.2,6.9,6.2,10.4,9.2.2.1.5,0,1.1,0,.1-1.3.3-2.5.3-3.8,0-13.2,0-26.4,0-39.6,0-1.4.4-2.7.6-4.1.5.2,1,.4,1.5.6Z"/>
      <path class="cls-28" d="M151.1,218.7c-.1-1.4-.2-2.7-.3-3.7-1.1,1.3-2,3.5-3.3,3.8-1.9.5-4.1-.4-6.4-.7-.5,1.3-1.7,1.4-3.2.1-.6-.6-1.1-1.3-1.7-1.9-1.1-1.4-1.8-1.4-2.4.6-.2.8-1.2,1.4-1.8,2-.5-.8-1.4-1.6-1.4-2.4-.2-3.3-.1-6.6,0-10,0-.6.2-1.5.6-1.8,2.8-2.1,9.1.4,9.8,3.2,3.2.2,6.1.3,9.1.5,0,.3.2.6.3.9.3-1.7.4-3.4.9-5,.1-.4,2-.7,2.1-.4.5,1,.8,2.2.9,3.3.1,3,0,6,0,9.1,0,2.5-.2,2.7-3.1,2.4ZM137.6,210.6c0-.4.2-.7.2-1.1-1.1-.8-2.2-1.6-3.7-2.7v5.2c1.4-.6,2.4-1,3.5-1.4Z"/>
      <path class="cls-26" d="M69.4,196.1c-.7,0-1.4,0-2,0-.6,0-1.2,0-1.7,0,0,.2,0,.4,0,.6,0,.8,0,1.6,0,2.4-.8,0-1.6,0-1.9.1-.7-1.7-1.3-3-1.8-4.3.6-4.5,1.1-9,1.7-13.6.3-2.2.8-4.3.9-6.5.1-1.9.8-2.5,2.4-2.4.6,0,1.3,0,1.9,0,2.5-.4,3.6.6,3.6,3.6,0,3.9,0,7.9.6,11.8.3,2.5,1.6,4.7,2.4,7.1.2.5.1,1.2.2,1.8-.3.5-.6.9-1,1.4-.6.7-1.2,1.4-1.7,2.2-.6-.7-1.2-1.4-1.8-2.2-.5-.6-1-1.3-1.5-1.9Z"/>
      <path class="cls-23" d="M156.3,201.4c-1.4,0-2.5,0-3.6,0-1.4,0-1.7-.7-1.7-2.3.2-8,.3-16.1.1-24.1,0-2,.4-2.5,2-2.6,5-.4,5-.4,6,5.1.1.5.5,1,1.1,2.2,0-2.9-.5-5.1.2-6.8.3-.8,2.8-.5,4.6-.7v28.7c-4.8,1.6-5.7.9-6.4-4.2-.3-2.1-1.2-4.1-2.2-6v10.7ZM154.6,180.4c.5,0,1-.1,1.5-.2.8,2.6,1.8,5.2,2.5,7.8.8,3,1.4,6,2.2,8.9.2.8,1.2,1.2,1.9,1.8.3-.9.8-1.8.8-2.7,0-6.2,0-12.5,0-18.7,0-.8-.3-1.6-.4-2.4-2.6,4.4.4,9.8-2.9,14.5-.5-1.1-.8-1.6-1-2.3-.9-3.4-1.6-6.8-2.6-10.2-.3-1-1.4-1.7-2.1-2.6-.5,1-1.4,2.1-1.5,3.1-.1,6.2,0,12.5,0,18.7,0,.8.3,1.6.4,2.4h1.1v-18.2Z"/>
      <path class="cls-29" d="M219.1,172.5c3.1,0,6.1-.2,9.2,0,1.4,0,2.7.7,4.1,1.1-.8.5-1.6,1.2-2.5,1.3-1.2,0-2.5-.5-3.8-.5-2-.1-3.1,1-3.1,3.2,0,6.5,0,13.1,0,19.6,0,.4,0,1,.2,1.2.5.5,1.2,1.1,1.7,1,.4,0,.9-1.1.9-1.7-.1-6-.4-12-.6-18,0-.8.4-1.5.5-2.3,0,4.9,0,9.8,0,14.8,0,1.1.7,2.2,1.1,3.3.7-1.3,2-2.6,2-4,0-4.3-.3-8.6-.5-12.9,0-.4,0-1.1,0-1.1-.9-.1-1.7-.1-2.6-.2.9-.4,1.8-1.3,2.5-1.1.8.2,1.9,1.4,2,2.2.3,3.9.3,7.8.4,11.8,0,3.1.8,6.6-2.7,8.6,1.6-.4,3.2-1,3.8-2.2.8-1.6,1.1-3.6,1.1-5.5.1-4.6,0-9.3,0-13.9.3,1.2.5,2.5.6,3.8.2,5.2.4,10.4.5,15.6-.5,3.4-1.6,4.3-5.5,4.8-7.6,1-7.7.9-7.7-7.5,0-4.3,0-8.7,0-13,0-.9-.7-1.8-1-2.7-1.3-.6-2.6-1.1-3.9-1.7h0c1-.5,2-.9,3-1.4,0-.2,0-.4,0-.6h-9.4c2.9,2.3.2,2.6-.1,3.7-2.3.3-1.6-1.6-1.6-2.7,0-1.2-.9-3.3,1.6-3.1,2.1,1.6,7.8,1.6,9.9,0Z"/>
      <path class="cls-20" d="M204.8,215.4c-.6,1.4-1.3,2.8-1.9,4.2-1.5,3.5-4.5,3.9-6.6.9-.2-.2-.2-.7-.4-.8-4.1-1-3.8-4.8-3.8-8.3-.3,0-.5,0-.8.1,0,1.6-.2,3.1-.2,4.7,0,2.3-.8,3.2-3.3,2.4-.2-4.1-.5-8.4-.5-12.7,0-2,.1-2,3.7-1.8,0,.6.1,1.2.1,1.7,0,.5,0,.9,0,2.1,1.9-2.7,3.5-3.1,5.3-.7.5.7,1.9.6,3.2.9.5,1,1.1,2.3,2,4,1-1.5,1.9-2.8,3.1-4.5h2.7c-.9,2.8-1.7,5.3-2.5,7.7h0ZM196.3,210.6c-.4,2-.6,3.3-.8,4.7h3.6c-.9-1.6-1.7-2.8-2.8-4.7Z"/>
      <path class="cls-11" d="M189.4,144.6c.4,1,.7,2,1.1,2.9-5.2-1.4-7-4.9-5.9-10.2,1.1-5.6,1.9-11.2,2.5-16.9,1.8-16.2-3-30.5-11-43.6-2.2-3.5-5.1-6.5-7.7-9.7.9,0,1.8,0,2.7,0,2,2.4,4.1,4.6,5.9,7.1,8.9,12.5,12.9,26.9,12.7,42.5,0,6.9-1.6,13.7-2.7,20.5-.3,2.2-.9,4.2,1.2,5.6.4.4.7.8,1.1,1.1,0,.2,0,.4,0,.6Z"/>
      <path class="cls-27" d="M69.4,196.1c.5.6,1,1.3,1.5,1.9.6.7,1.2,1.5,1.8,2.2.6-.7,1.2-1.4,1.7-2.2.3-.4.6-.9,1-1.4.1.7.3,1.4.4,2.1.1,0,.3,0,.4,0,0-1.4-.1-2.9-.2-4.3,0-4.5,0-9.1,0-13.6-.2-2.1-.4-4.2-.4-6.2,0-.6.4-1.6.9-1.9,2.8-1.5,5,.1,5.1,3.4,0,6.3,0,12.6,0,19.3h6.4v-16.4q-3.9-1-3.4-6.4h10.2c-2.2.4-4.4.7-6.6,1.1-.6.5-1.3,1-1.7,1.3,1.1,1.2,2,2.1,2.8,2.9,0,6.9,0,13.7,0,20.6,0,.4,0,.8,0,1.2.2.2.4.4.6.6.3,0,.7,0,1,0,3-1.1,1.5-3.4,1.1-5.4,0-1.2,0-2.4,0-3.6.2-2.8.4-5.7.5-8.5,0-.6,0-1.2,0-1.8l-.5-3.1c.2-.4.4-.8.6-1.2.9.6,1.8,1.1,2.7,1.7-.5.7-1.6,1.4-1.6,2.1,0,6.3.3,12.6.3,18.9,0,.7-1.2,2-1.9,2-5.2.1-10.4,0-15.5,0-.5,0-1,0-1.6,0-4.8.4-5.1.2-5.7-5.3ZM77.8,199.6c.4,0,.7,0,1.1,0,2.1.2,4.2.4,6.4.5.2,0,.5-.7.8-1.1-1.1-.4-2.3-.7-3.4-1.2-.9-.5-1.7-1.2-2.6-1.9.2-1.1.5-2.1.5-3.2,0-5.1,0-10.2,0-15.3,0-1.3-.3-2.5-.5-3.8-.4,0-.7,0-1.1,0-1.9.2-1.6,1.8-1.6,3.2,0,6.8,0,13.6,0,20.4,0,.8.4,1.6.6,2.4Z"/>
      <path class="cls-4" d="M186.5,214.8c.2,4.2.2,4.2-2.9,3.9-.2-1.4-.4-2.7-.6-4.1-.3,0-.6,0-.9,0-.1,1.2-.3,2.5-.5,4-1.5.8-2.8.9-2.8-2.3-2.6,4.1-6.1,2.4-9.2,2.5-.4,0-1.1-1.3-1.1-2-.1-4.1,0-8.2,0-12.6,1.1-.1,1.9-.2,2.9-.3.2,1.2.5,2.3.7,3.4,2,.4,4,.7,6.3,1.2,0-.6,0-1.3,0-1.9.2-.9.3-2.2.8-2.6.5-.3,1.8.2,2.2.7.5.6.5,1.8.5,2.7,0,1.7-.2,3.4-.3,5h.8c.3-2.7.7-5.5,1-8.3,2.1-.7,3.3-.2,3.2,2.4,0,1.1,0,2.2-.1,3.3-.5-1.4-1-2.7-1.5-4.1-.1,0-.2,0-.3,0v11.6c.8-1.2,1.3-1.9,1.8-2.7ZM175.9,213.3c-1-.9-1.6-1.9-2.2-1.9-.6,0-1.6,1.2-1.5,1.9,0,.7.9,1.9,1.6,1.9.6,0,1.3-1,2.2-1.9Z"/>
      <path class="cls-25" d="M98.8,150.8c1.7-.2,3.4-.7,5.1-.6.6,0,1,1.7,1.8,3.2,2.3.8,3.7,3.6,2.6,6.9-.3.8-1.5,1.7-2.2,1.7-2.1,0-4.3-.7-6.4-.8-1.7-.1-3.5,0-5.2.3-2.5.3-3.3-1-3.1-3.5.1-1.3,0-2.6,0-3.9,0-4.1,1.1-4.9,4.7-3.6.8.3,1.7.7,2.5,1.1,0-.3.1-.5.2-.8Z"/>
      <path class="cls-16" d="M22.3,177.3c0-1.5,0-3,0-4.8,2.8,0,5.5-.2,8.1,0,3.5.4,4.8,2,5,6.2,0,2-.4,4-.5,5.9,0,2.2.1,4.3.3,6.5.2,3,.6,6,.5,9,0,.5-1.9,1.1-3,1.3-1.3.3-2.7.2-2.7-1.9,0-1.8,0-3.6,0-5.4-.1-1.4-.5-2.7-.8-4.1-.4,0-.9,0-1.3,0,0,2.2,0,4.3,0,6.5,0,5.3,0,5.3-5.4,4.6v-20.3c.4-.3.9-.5,1.5-.9,0,.7,0,1.2,0,1.7,0,4.9,0,9.9,0,14.8,0,.8.6,1.5.9,2.2.4-.8,1.1-1.5,1.2-2.3.2-1.8,0-3.6.1-5.4,0-1.7.7-2.9,2.5-2.9,1.7,0,2.8.8,2.9,2.8,0,1.9,0,3.8.1,5.7,0,.8.4,1.6.7,2.4.7-.6.9-1.1.9-1.5.2-6.1-1.1-12.2,0-18.4,0-.5,0-1-.2-1.5-.7-2.7-2.7-3.4-4.9-3.5-1.8,0-3.8-.5-4.3,2.5,0,.3-1,.4-1.5.6Z"/>
      <path class="cls-6" d="M119.6,200.2c-.6-3-1.3-5.9-1.9-8.9-.1,0-.3,0-.4,0,0,2.6,0,5.2,0,7.8,0,2-1,2.4-2.5,2.3-1.3,0-3,.4-3-2,0-3.9,0-7.8,0-11.8,0-4.9,0-9.8,0-15.4,2.4.2,5-.4,6.5.8,1.3,1.1,1.3,4.1,2.5,6.2v-5.1c.5.2,1.1.4,1.6.6,0,.8,0,1.6,0,2.4,0,3.2,0,6.5,0,9.7-.4.7-.7,1.5-1.1,2.2-1.7-4.2-2.7-8.2-3.8-12.2-.3-1-1.3-1.8-2-2.7-.6,1.1-1.8,2.1-1.8,3.2,0,6.2.2,12.4.4,18.7,0,.9.3,1.7.5,2.6.4,0,.8-.1,1.1-.2v-16.5c.3,0,.6,0,.9,0,2.7,4,3,8.8,4,13.4-.2,1.6-.3,3.2-.5,4.8h0c-.2,0-.3,0-.5,0Z"/>
      <path class="cls-6" d="M95.3,178.4c-.9-.6-1.8-1.1-2.7-1.7,1-.4,1.9-.9,2.9-1.3,0-.2,0-.4,0-.6-2.4-.4-4.9-.7-7.3-1.1,2.2-.4,4.4-.7,6.6-1.1,1.7-.2,3.4-.4,3.5,2.3,3.7-3.6,7.4-4.3,10.9-1.2,1.2,1.1,2,3.4,2.1,5.3.3,5.3.2,10.7,0,16-.1,4.8-2.9,7.3-7.4,7.2-4.1,0-6.4-2.7-6.4-7.5,0-5.2,0-10.4,0-15.9-.4,0-1.3-.2-2.2-.3ZM99.8,186.9s0,0,0,0c0,2.6,0,5.2,0,7.9.1,2.8,1.4,4.5,4,4.9,2.9.4,4.4-.6,5.1-3.6.4-1.6.7-3.4.7-5,0-3.9-.3-7.8-.5-11.7-.1-3.5-1.6-5-4.9-4.9-2.9,0-4.8,2.3-4.7,5.4,0,2.4.2,4.8.3,7.2Z"/>
      <path class="cls-5" d="M234,196.7c-.2-5.2-.3-10.4-.5-15.6,0-1.3-.3-2.6-.6-3.8,0,4.6,0,9.3,0,13.9,0,1.9-.3,3.9-1.1,5.5-.6,1.2-2.2,1.8-3.8,2.2,3.6-2,2.8-5.5,2.7-8.6,0-3.9,0-7.9-.4-11.8,0-.8-1.2-2-2-2.2-.7-.2-1.7.7-2.5,1.1,0,0,0,0,0,0-.2.8-.6,1.5-.5,2.3.2,6,.4,12,.6,18,0,.6-.5,1.6-.9,1.7-.5,0-1.2-.5-1.7-1-.2-.2-.2-.8-.2-1.2,0-6.5,0-13.1,0-19.6,0-2.3,1.1-3.4,3.1-3.2,1.3,0,2.5.6,3.8.5.8,0,1.7-.8,2.5-1.3.7,1.5,2,3.1,2.1,4.6.3,5.6.1,11.3,0,16.9,0,.5-.3,1.1-.5,1.6Z"/>
      <path class="cls-1" d="M74.9,211.9c2-1.7,4.1-3.4,6.1-5,.7,0,1.4-.3,2-.1,1.2.4,2.3.9,3.7.9.7,1.4,1.4,2.8,2.2,4.2.7-1.2,1.2-2.5,2-3.4.6-.7,1.5-1,2.3-1.5.3,1,1,2.3.7,3.1-1.1,3-2.4,6-3.8,8.9-.7,1.3-1.7,2.8-2.9,3.4-.9.4-3.3-.4-3.3-.9-.3-2.4-2.5-2.3-3.5-3.6,1.9-1.2,3.8-2.3,5.7-3.5-.7-4-2.1-5.5-5.4-5.8,1.1,1.4,1.9,2.5,3.4,4.4-1.7-.3-2.6-.4-3.5-.6-.8-1.4-1.6-1.8-2.3,0-.9.6-1.8,1.2-2.7,1.9-.2-.8-.4-1.6-.6-2.3Z"/>
      <path class="cls-22" d="M22.3,177.3c.5-.2,1.5-.3,1.5-.6.5-2.9,2.5-2.5,4.3-2.5,2.2.1,4.2.8,4.9,3.5.1.5.3,1,.2,1.5-1.1,6.1.2,12.2,0,18.4,0,.5-.2.9-.9,1.5-.2-.8-.6-1.6-.7-2.4-.1-1.9,0-3.8-.1-5.7,0-2-1.2-2.8-2.9-2.8-1.8,0-2.4,1.2-2.5,2.9,0,1.8,0,3.6-.1,5.4,0,.8-.8,1.5-1.2,2.3-.3-.7-.9-1.5-.9-2.2,0-4.9,0-9.9,0-14.8,0-.5,0-1,0-1.7-.6.3-1,.6-1.5.9,0-1.2,0-2.4,0-3.6ZM26.6,185.7c1.7-1,3.4-1.4,3.8-2.4.5-1.5.2-3.5,0-5.2,0-.4-1.6-.9-2.3-.8-.5.1-1.2,1.2-1.3,1.9-.2,1.8,0,3.6,0,6.4Z"/>
      <path class="cls-9" d="M180,197.2c-.1.4-.3.9-.6,1.9-.9-2-1.5-3.5-2.2-5-.2-.4-.4-.8-.5-1.1-.4-.6-.7-1.3-1.1-1.9-.2-.6-.3-1.2-.5-1.8,1.5-1.5.6-2.6-.6-3.7,0-.4,0-.8,0-1.1l-.6-.7c-.3-.2-.7-.8-.9-.7-2.4,1.2-3.3.6-3.4-2.3,0-2.2,0-4.4,0-6.6.6-.4,1.1-.9,1.7-1.3.3,1.7.5,3.4.8,5.3,1.7-3.1,2.4-8.1,7.8-5.2,0,.5,0,1.5.1,2.4,0,0,0,0,0,0-1,2-2.1,4-3,6-.4,1-.9,2.4-.7,3.4,1.1,4.2,2.4,8.3,3.6,12.4Z"/>
      <path class="cls-20" d="M204.8,215.4c2-.3,3.9-1,5.9-1,6.1,0,12.2.1,18.3.4.8,0,2,1.1,2.1,1.8.2,1.6-.8,2.3-2.4,2.3-6.8-.2-13.6-.4-20.4-.1-2.8.1-3.7-.6-3.4-3.5,0,0,0,0,0,0Z"/>
      <path class="cls-5" d="M204.1,174.2c.2,5.3.4,10.6.5,15.9,0,1.4-.3,2.7-.5,4.1-.4.5-.9,1-1.3,1.5.7.5,1.4,1.2,2.1,1.5,1.3.5,3.3-.7,3.7,1.9-1.9.2-3.8.4-5.6.6-1.9.1-2.6-1-2.6-3,0-6.4,0-12.9,0-19.3,0-2.1.7-3.2,2.7-3.1.3,0,.6,0,1,0Z"/>
      <path class="cls-17" d="M123.1,149.5c-3.2.1-6.4.3-9.6.4,0-2.5,0-5,0-7.5-.1-2,.8-2.7,2.4-2.7,1.6,0,3.3,0,4.9,0,2.3,0,3.5,1.8,3.2,4.2-.2,1.7-.2,3.5-.2,5.2,0,0-.1,0-.1,0h0c-.2.2-.3.3-.5.4Z"/>
      <path class="cls-17" d="M136.5,150.5c-3.3-.2-6.6-.3-9.8-.5,0-2.3,0-4.6,0-6.9,0-1.9.5-2.8,2.3-2.7,2.4,0,4.7,0,7.3,0,1.3,3.4.8,6.8.2,10.2Z"/>
      <path class="cls-18" d="M137.6,62.2c-1.3,0-2.5,0-3.8,0-.4-.1-.7-.3-1.1-.4-.4-.2-.8-.5-1.1-.7-3.7-2-7.4-3.9-11-5.9-.4-.2-.9-.8-.9-1.3-.2-5.3-.4-10.6-.4-15.9,0-1.9.9-3.5,2.6-4.5,1.9-1.2,3.6-2.6,5.4-3.9.5.4,1.1.8,1.6,1.3-.9.9-1.9,1.7-2.8,2.6-1.6,1.8-4.4,3.4-4.6,5.4-.6,4.4,0,9,.4,13.5,0,.6.7,1.4,1.3,1.7,3.8,2.1,7.7,4,11.6,6.1,1,.6,1.9,1.4,2.8,2.1Z"/>
      <path class="cls-4" d="M168,213.9c0,.8,0,1.6,0,2.4,0,.5,0,1.4-.1,1.4-2,.5-4.1,1.2-6.1,1.1-.9,0-2.3-1.6-2.5-2.7-.4-2.1-.1-4.3,0-6.5,0-.4.3-1.2.6-1.2,2.1-.3,4.3-.9,6.2-.4.9.2,1.3,2.6,1.9,4.1.2.5,0,1.2,0,1.8Z"/>
      <path class="cls-29" d="M216.8,199c.3,2.4-1.1,2.6-2.7,2.4-1.3-.1-2.6-.5-3.9-.7.2-1.7.4-3.5.5-5.2.1-4,.3-8,.4-12,0-1.7-.2-3.3-.3-5,1.7-1.3,2.2-.5,2.2,1.4,0,5.2,0,10.4,0,15.7,0,1,.2,2,.3,3,.3,0,.6,0,.8,0,.2-1,.4-1.9.4-2.9,0-5.3,0-10.6,0-16,0-1.1.7-2.1,1-3.2,0,0,0,0,0,0,0,6.6,0,13.2,0,19.9,0,.9.6,1.7,1,2.5Z"/>
      <path class="cls-8" d="M210.8,195.5c-.2,1.7-.4,3.5-.5,5.2-3.4.2-6.8.5-10.2.5-.4,0-1.2-1.5-1.2-2.2,0-8,0-16.1,0-24.1,0-1.6.5-2.7,2-2.4,1.2.2,3.4-1.5,3.4,1.8-.3,0-.6,0-1,0-2.8-.9-3.3-.6-3.3,2.5,0,5.3,0,10.7,0,16,0,8.6-1.1,7.5,7.1,7.5.8,0,1.5-.7,2.3-1.2,0,0,0,0,0,0-.2,0-.4,0-.6,0-.4-2.6-2.4-1.4-3.7-1.9-.8-.3-1.4-1-2.1-1.5.4-.5.9-1,1.3-1.5,2.2.5,4.4.9,6.6,1.4Z"/>
      <path class="cls-23" d="M171.3,173c-.6.4-1.1.9-1.7,1.3-.5.8-1.5,1.7-1.6,2.6-.3,7.4-.4,14.7-.6,22.1.9.8,1.8,1.6,2.7,2.4q-4.4.2-4.3-4.6c0-6.5,0-13,0-19.6,0-5.1.9-5.8,5.5-4.2Z"/>
      <path class="cls-5" d="M215.8,176.6c-.4,1-1,2.1-1,3.2-.1,5.3,0,10.6,0,16,0,1-.3,1.9-.4,2.9-.3,0-.6,0-.8,0-.1-1-.3-2-.3-3,0-5.2,0-10.4,0-15.7,0-1.9-.5-2.8-2.2-1.4-.5,0-1.1-.1-1.6-.2.3-1.1,3-1.4.1-3.7h9.4c0,.2,0,.4,0,.6-1,.5-2,.9-3,1.4Z"/>
      <path class="cls-28" d="M122.3,174.9c-.5-.2-1.1-.4-1.6-.6.5-2.1.9-2.2,4.5-1.5,0,4,0,8,0,12,0,4.5.2,9.1.3,13.6-1.2,2.9-3.6,1.6-5.5,1.9.2-1.6.3-3.2.5-4.8.2.7.3,1.4.7,2,.4.6,1,1,1.6,1.4.3-.6,1-1.3,1-1.9,0-6.9,0-13.7,0-20.6,0-.5-1-1-1.6-1.5Z"/>
      <path class="cls-18" d="M172.8,79.8c-.5-.2-1-.4-1.5-.6-3-3.1-5.9-6.3-8.9-9.3-1.3-1.3-2.9-2.4-4.3-3.5-.6-.2-1.1-.4-1.7-.6,0-.9,0-1.9.3-2.6,0-.2,1.5-.2,1.9.2,4.3,4.2,8.6,8.5,12.8,12.9.8.8.9,2.3,1.4,3.5Z"/>
      <path class="cls-28" d="M155.5,218.7c-.2-4.3-.6-8.5-.6-12.8,0-1,1.5-2,2.3-2.9.3.1.5.3.8.4.2.9.4,1.8.5,2.8,0,3.3,0,6.6,0,10,0,2.8-.3,2.9-3.1,2.6Z"/>
      <path class="cls-19" d="M80.5,212.3c.9.2,1.8.3,3.5.6-1.4-1.9-2.3-3-3.4-4.4,3.3.2,4.7,1.8,5.4,5.8-1.9,1.2-3.8,2.4-5.7,3.5-.7-1.9-1.9-3.7,0-5.5ZM81.7,215.3c0,0-.1-.1-.2,0,0,0,0,.1,0,.2,0,0,.2.1.2,0,0,0,0-.1.1-.2Z"/>
      <path class="cls-5" d="M216.8,199c-.3-.8-1-1.7-1-2.5,0-6.6,0-13.2,0-19.9,1.3.6,2.6,1.1,3.9,1.7-.8,0-1.6.2-2.8.3v20.4Z"/>
      <path class="cls-19" d="M61.9,194.8c.6,1.3,1.1,2.7,1.8,4.3.4,0,1.1,0,1.9-.1.3,0,.7,0,1,0-.4,3.4-2.8,2.6-4.5,2.3-2.1-.3-1.5-2.2-1.1-3.7.3-.9.6-1.9.8-2.8Z"/>
      <path class="cls-20" d="M186.5,214.8c-.5.8-1,1.5-1.8,2.7v-11.6c.1,0,.2,0,.3,0,.5,1.4,1,2.7,1.5,4.1,0,1.6,0,3.2,0,4.8Z"/>
      <path class="cls-19" d="M75.5,214.2c.9-.6,1.8-1.2,2.7-1.9,0,1.3,0,2.6.1,3.9.1,2.3-.8,3.1-3.3,2.4.2-1.4.3-3,.5-4.5Z"/>
      <path class="cls-5" d="M76.1,180.7c0,4.5,0,9.1,0,13.6,0-4.5,0-9.1,0-13.6Z"/>
      <path class="cls-22" d="M138.3,195.3c-.3-.3-.9-.7-.9-1,0-3.5.3-6.9.4-10.4.1,3.8.3,7.6.4,11.4Z"/>
      <path class="cls-5" d="M219.1,172.5c-2,1.6-7.8,1.6-9.9,0,3.3,0,6.6,0,9.9,0Z"/>
      <path class="cls-21" d="M87.6,85.2c-.6-.2-1.1-.4-1.7-.6,1.6-1.6,3.3-3.2,4.9-4.8.2.4.4.8.6,1.3-1.3,1.4-2.6,2.8-3.9,4.2Z"/>
      <path class="cls-23" d="M171.3,200.9c-.6-2.7-2.2-5.4.4-7.9-.1,2.6-.3,5.3-.4,7.9Z"/>
      <path class="cls-6" d="M120.1,200.2c1.9-.3,4.3,1,5.5-1.9,1.1,1.9.6,3-1.4,3-1.4,0-2.8-.3-4.2-.5,0-.2,0-.5,0-.7h0Z"/>
      <path class="cls-11" d="M195.5,137.4c.4-2.7.7-5.3,1.1-8-.4,2.7-.7,5.3-1.1,8Z"/>
      <path class="cls-27" d="M66.7,199c-.3,0-.7,0-1,0,0-.8,0-1.6,0-2.4,0-.2,0-.4,0-.6.6,0,1.2,0,1.7,0-.2,1-.5,1.9-.7,2.9Z"/>
      <path class="cls-11" d="M164.5,63.4c.8.6,1.5,1.3,2.3,1.9-.8-.6-1.5-1.3-2.3-1.9Z"/>
      <path class="cls-17" d="M196,157.9c-.2,0-.5,0-.7.1,0-.3,0-.5.1-.8.2.2.4.4.6.6Z"/>
      <path class="cls-10" d="M131.6,61.1c.4.2.8.5,1.1.7-.4-.2-.8-.5-1.1-.7Z"/>
      <path class="cls-10" d="M155.9,65.9c-.2.4-.3.8-.5,1.2.2-.4.3-.8.5-1.2Z"/>
      <path class="cls-28" d="M120.1,200.3c0,.2,0,.5,0,.7-.1-.2-.3-.5-.4-.7.2,0,.3,0,.5,0Z"/>
      <polygon class="cls-25" points="123.6 149.2 123.6 149.1 123.7 149.1 123.6 149.2"/>
      <path class="cls-7" d="M58.5,157.9c6.7-5.9,13.9-11.3,20.1-17.8,6-6.4,13.2-10.8,19.2-17.1,5.3-5.6,11.5-10.4,17.4-15.4,3.1-2.6,6.2-5.2,9.5-7.6.5-.4,1.8-.1,2.3.4,4,3.3,7.9,6.7,11.8,10.2,5.6,5,11.1,10.2,16.8,15.2,7.5,6.6,15.2,13,22.7,19.6,4.9,4.3,9.7,8.8,14.5,13.2-.7.4-1.4,1-2,1-3.5,0-6.9-.3-10.4-.4-2,0-3.5-.7-5.1-2.3-3.7-3.7-7.7-7-11.7-10.5-5.1-4.5-10.2-9-15.3-13.5-6-5.3-12.1-10.6-18.1-15.9-.4-.3-.7-.6-1.1-1-1.6-1.9-2.9-2.8-5.1-.4-2.8,2.9-6.3,5.1-9.4,7.7-4.7,4-9.4,8.2-14.1,12.3-2.5,2.2-5,4.3-7.5,6.5-3.7,3.1-7.8,5.8-10.9,9.5-2.7,3.2-6.2,4.9-9.1,7.6-.5.4-1.1,1-1.6,1-4.1-.4-8.2-.8-12.2-1.4-.3,0-.5-.6-.7-.9Z"/>
      <path class="cls-3" d="M113.1,127.8c.3-.1.5-.3.8-.4-.1.3-.3.6-.4.9-.1-.2-.3-.3-.4-.5Z"/>
      <path class="cls-3" d="M124.4,158.5l-.2-.9c.2.2.4.3.6.4-.1.2-.3.3-.4.5Z"/>
      <path class="cls-22" d="M42,197.8l3.9-.9c.2,0,.3.2.5.3-.9.7-1.8,1.7-2.8,2.1-1.7.7-3.4.5-4.6-1.5-2.5-4.1-2.1-8.7-1.7-13.1.3-3.3,1-6.5,1.5-9.8.4-.2.8-.4,1.2-.6.1,0,.3,0,.4,0,.7,0,1.5.2,2.2.3-3,1.7-3.2,4.5-3.2,7.4,0,3.9,0,7.8,0,11.7,0,2.2.8,3.6,2.8,4.2Z"/>
      <path class="cls-22" d="M46.4,174.9c.4,5.7.8,11.4,1.1,17.1,0,1.4,0,3.1-2.1,2.3.2-3.8.4-7.5.4-11.3,0-1.9-.6-3.8-1-5.6-.2-.2-.4-.4-.6-.6,0-.6,0-1.2,0-1.8.4,0,.8,0,1.1,0,.4,0,.7,0,1.1,0Z"/>
      <path class="cls-3" d="M42.5,178.1c.4.7,1,1.4,1,2.2.1,4.4,0,8.9,0,13.3,0,.6-.6,1.1-.9,1.7-.4-.3-1.1-.7-1.1-1,0-5.3,0-10.6,0-15.8.3,0,.6-.2,1-.3Z"/>
      <path class="cls-16" d="M44.2,174.8c0,.6,0,1.2,0,1.8-3.4.2-3.8.7-3.8,4.3,0,2.7,0,5.4,0,8.1-.1,3.1,0,6.1,1.7,8.8-2-.5-2.8-1.9-2.8-4.2,0-3.9,0-7.8,0-11.7,0-2.9.3-5.7,3.2-7.4-.7,0-1.5-.2-2.2-.3,1.5-1.6,2.9-1.9,3.9.6Z"/>
      <path class="cls-16" d="M44.8,177.3c.3,1.9,1,3.7,1,5.6,0,3.8-.3,7.5-.4,11.3-.2-2.7-.5-5.5-.6-8.2,0-2.9,0-5.8,0-8.7Z"/>
      <path class="cls-16" d="M46.4,174.9c-.4,0-.7,0-1.1,0,.4,0,.7,0,1.1,0Z"/>
      <path class="cls-16" d="M39.9,174.3c-.4.2-.8.4-1.2.6.4-.2.8-.4,1.2-.6Z"/>
      <path class="cls-2" d="M188.3,142.8c-2.1-1.4-1.5-3.4-1.2-5.6,1.1-6.8,2.6-13.7,2.7-20.5.2-15.6-3.8-30-12.7-42.5-1.8-2.5-3.9-4.7-5.9-7.1-3.3-3-6.5-6-9.8-9-1.1-.9-2.4-1.5-3.5-2.3-.6-.4-1.5-.9-1.7-1.5-.4-1.7-.4-3.4-.6-5.2,1.2,0,2.5-.5,3.5,0,6.4,2.5,11.7,6.8,16.8,11.8,7.4,7.3,12.5,16.5,15.7,26.6,2.3,7.2,2.8,15.1,3.9,22.7,1.3,9,0,17.9-2.1,26.6-.5,1.9-.9,3.9-1.7,5.7-.4.9-1.5,1.4-2.3,2.1,0-.2,0-.4,0-.6-.4-.4-.7-.8-1.1-1.1Z"/>
      <path class="cls-2" d="M103.1,52.5c-3.6,1.7-7.4,2.9-10.7,5.1-6.8,4.6-13.3,9.5-18.2,16.7-5.1,7.6-8.9,15.7-11.1,25-1.9,8.1-2.2,16.1-1.7,24.2.3,5.1,1.5,10.1,2.6,15,.4,1.9.3,3-1.1,4.1-1.2.9-2.1,2.2-3.5,3.6-1.3-4.2-2.5-8.1-3.7-12-.6-6.2-1.8-12.4-1.5-18.6.5-13.7,4.1-26.4,10.7-38.2,4.2-7.6,9.2-14.4,15.4-19.9,7.9-7.1,16.6-12.8,26.9-14.8,1.8-.4,3.6-.9,5.7-1.3.2,2.1.6,3.7.5,5.3-.1,1.9-.5,3.2-2.9,3.3-2.5.1-4.9,1.7-7.3,2.6Z"/>
      <path class="cls-31" d="M51.8,211.7c0,.4,0,.8,0,1.2-1-.4-2.5-.5-2.9-1.3-.6-1.1-.3-2.7-.5-4.4,1.3,0,2.3-.1,3.3-.1,0,0,0,.7,0,1.1-1.2-.1-2.1,0-2.1,1.8,0,1.9.9,1.9,2.1,1.8Z"/>
      <path class="cls-3" d="M51.8,211.7c-1.2.1-2.1.1-2.1-1.8,0-1.9.9-1.9,2.1-1.8.6.4,1.1.9,1.7,1.3,0,.3,0,.6,0,1-.6.4-1.1.9-1.7,1.3Z"/>
      <path class="cls-31" d="M53.5,210.4c0-.3,0-.6,0-1,.3.2.7.4,1,.6-.3.1-.7.2-1,.3Z"/>
      <path class="cls-10" d="M87.6,85.2c1.3-1.4,2.6-2.8,3.9-4.2,3.1-2.8,6.3-5.7,9.4-8.6,3.6-3.4,7.1-6.9,10.7-10.2.3-.2,1.2.4,1.8.7,0,0,0,.4,0,.6.2,10.8.4,21.6.5,32.3,0,2.5-1.6,3.9-3.4,5.3-3.9,3.1-7.4,6.7-11.1,10-4.7,4.2-9.6,8.3-14.4,12.4-1.7,1.4-3.4,2.8-5,4.2-.3-.2-.5-.4-.8-.6,0-4.8,0-9.5,0-14.3,0-5.1-.1-10.3,0-15.4,0-1.7.8-3.6,1.8-4.9,1.9-2.6,4.3-4.9,6.4-7.3Z"/>
      <path class="cls-10" d="M137.6,62.2c-.9-.7-1.8-1.6-2.8-2.1-3.8-2.1-7.7-4-11.6-6.1-.6-.3-1.3-1.1-1.3-1.7-.3-4.5-.9-9.1-.4-13.5.3-2,3-3.7,4.6-5.4.9-.9,1.8-1.8,2.8-2.6,3-2.5,5.8-5.1,8.9-7.5,3.7-2.9,7.6-5.6,11.8-8.8.1,1.7.2,2.4.2,3.2-.1,12.6-.2,25.2-.3,37.8,0,13.1-.2,26.2-.2,39.4,0,3.4.4,6.7.4,10.1,0,1.4-.6,2.8-1,4.6-3.3-3.5-6.4-6.1-8.9-9.4-3.3-4.4-2.1-9.7-1.7-14.8.3-3.3.1-6.7,0-10,0-3.4-.3-6.8-.4-10.2,0-1,0-2-.1-3Z"/>
      <path class="cls-30" d="M167.4,199c.2-7.4.3-14.7.6-22.1,0-.9,1-1.7,1.6-2.6,0,2.2,0,4.4,0,6.6.1,3,1,3.5,3.4,2.3.2,0,.6.4.9.7.2.2.4.5.6.7,0,.4,0,.8,0,1.1.2,1.2.4,2.4.6,3.7.2.6.3,1.2.5,1.8.4.6.7,1.3,1.1,1.9.2.4.4.8.5,1.1,0,1.6,0,3.2,0,4.9-.2.1-.4.2-.6.3-.7-1.9-1.4-3.9-2-5.8-.2-.8-.1-1.7-.5-2.3-.7-1.3-1.4-2.7-2.5-3.6-.5-.4-2.4,3.4-2.3,4.8.1,1.4.1,2.8.1,4.2,0,1.6-.6,2.5-2.1,2.3Z"/>
      <path class="cls-3" d="M180,197.2c-1.2-4.1-2.6-8.2-3.6-12.4-.2-1,.3-2.3.7-3.4.9-2.1,2-4,3-6,0,4.2-.7,8.5,2.4,11.9,1.4,1.5,2.9,3,4.1,4.7.5.8.4,2.1.6,3.2-.3,0-.6.1-.9.2-.2-.4-.6-.7-.6-1.1-.5-2.7-3.1-4.2-5.2-2.9-.5.3-.8,1.5-.8,2.3,0,1.2.2,2.4.4,3.5Z"/>
      <path class="cls-5" d="M183.6,176.7c-1.3,5.4,1.9,8.3,4.9,11.3,1.9,1.9,2.5,4.2,2.4,6.7,0,2.9-2.5,5.1-5,4.9-2.4-.3-4.1-2.7-3.3-5.8.1.4.3.8.4,1.1.8,2.8,2.8,3.7,4.9,2.6,2.3-1.2,1.7-3.9,1.1-5.9-.4-1.4-1.6-2.7-2.7-3.6-2.4-2-3.9-4.5-4.3-7.7-.1-1.2.4-2.5.6-3.7.3,0,.7,0,1,.1Z"/>
      <path class="cls-5" d="M188.7,176c-.9-.2-1.7-.5-2.6-.7,0-.3.1-.6.2-.9.9.2,1.7.4,2.6.6,0,.3-.1.6-.2,1Z"/>
      <path class="cls-3" d="M186.2,181.3v-3.2c.2,0,.5,0,.7,0v3.2c-.2,0-.5,0-.7,0Z"/>
      <path class="cls-5" d="M190.4,177.2l.4,1.9c-.2,0-.5.2-.7.3-.2-.6-.4-1.3-.6-1.9.3,0,.6-.2.9-.3Z"/>
      <path class="cls-3" d="M122,210.8c-.1,1.4-.2,2.8-.3,4.2-.7-.2-2-.4-2-.5,0-1.3.4-2.6.6-3.9.6,0,1.1.2,1.7.3Z"/>
      <path class="cls-12" d="M136,177.8c0,4.7,0,9.4,0,14.1,0,1.6-.3,2.8-2.2,2.3.1-6.5-.3-13.1.2-19.6.4,0,.9,0,1.3-.1.2,1.1.4,2.3.6,3.4Z"/>
      <path class="cls-12" d="M133.9,196c2.8,1,5.5,2,8.3,3-1.7.2-3.3.4-5,.5-2.4.3-3.6-.9-3.2-3.6Z"/>
      <path class="cls-28" d="M136,177.8c-.2-1.1-.4-2.3-.6-3.4-.4,0-.9,0-1.3.1-.5,6.5,0,13.1-.2,19.6-.2-3-.4-5.9-.5-8.9,0-2.7-.1-5.4,0-8.1,0-1.2.6-2.3,1.1-3.4,0-.2,1.6.1,1.6.3.1,1.2,0,2.4,0,3.6Z"/>
      <path class="cls-28" d="M133.9,196c-.3,2.7.8,3.8,3.2,3.6,1.7-.2,3.3-.4,5-.5,0,.4,0,1-.2,1.1-2.4,0-4.8.4-7.1,0-2.3-.4-1.8-2.4-1-4.1Z"/>
      <path class="cls-10" d="M158,66.4c1.5,1.2,3,2.2,4.3,3.5,3,3,5.9,6.2,8.9,9.3-.2,1.4-.6,2.7-.6,4.1,0,13.2,0,26.4,0,39.6,0,1.2-.2,2.5-.3,3.8-.6,0-1,.1-1.1,0-3.5-3-7-6-10.4-9.2-.8-.8-1.3-2.4-1.4-3.7,0-14.8,0-29.6,0-44.4,0-1,.4-1.9.5-2.9Z"/>
      <path class="cls-3" d="M137.6,210.6c-1,.4-2.1.9-3.5,1.4v-5.2c1.5,1.1,2.6,1.9,3.7,2.7,0,.4-.2.7-.2,1.1Z"/>
      <path class="cls-19" d="M65.6,196.1c0,.2,0,.4,0,.6,0-.2,0-.4,0-.6Z"/>
      <path class="cls-30" d="M154.6,180.4v18.2h-1.1c-.1-.8-.4-1.6-.4-2.4,0-6.2,0-12.5,0-18.7,0-1.1.9-2.1,1.5-3.1.7.9,1.8,1.6,2.1,2.6,1,3.3,1.7,6.8,2.6,10.2.2.6.5,1.2,1,2.3,3.3-4.6.3-10.1,2.9-14.5.1.8.4,1.6.4,2.4,0,6.2,0,12.5,0,18.7,0,.9-.5,1.8-.8,2.7-.6-.6-1.7-1.1-1.9-1.8-.9-2.9-1.4-6-2.2-8.9-.7-2.6-1.7-5.2-2.5-7.8-.5,0-1,.1-1.5.2Z"/>
      <path class="cls-3" d="M228.3,178.5c.2,4.3.6,8.6.5,12.9,0,1.3-1.3,2.6-2,4,0-4.9,0-9.9,0-14.8,0-1.2,0-2.3,1.5-2.1Z"/>
      <path class="cls-8" d="M228.3,178.5c-1.5-.2-1.6.9-1.5,2.1,0,4.9,0,9.9,0,14.8-.4-1.1-1.1-2.2-1.1-3.3-.1-4.9,0-9.8,0-14.8,0,0,0,0,0,0,.9,0,1.7,0,2.6.2,0,0,0,.7,0,1.1Z"/>
      <path class="cls-3" d="M196.3,210.6c1.2,1.9,1.9,3.2,2.8,4.7h-3.6c.3-1.4.5-2.7.8-4.7Z"/>
      <path class="cls-15" d="M188.3,142.8c.4.4.7.8,1.1,1.1-.4-.4-.7-.8-1.1-1.1Z"/>
      <path class="cls-12" d="M88.2,173.6c2.4.4,4.9.7,7.3,1.1,0,.2,0,.4,0,.6-1,.4-1.9.9-2.9,1.3-.2.4-.4.8-.6,1.2.2,1,.4,2,.5,3.1,0,.6,0,1.2,0,1.8-.2,2.8-.4,5.7-.5,8.5,0,1.2,0,2.4,0,3.6-.4,1.8-.8,3.6-1.1,5.4-.3,0-.7,0-1,0-.2-.2-.4-.4-.6-.6,0-.4,0-.8,0-1.2.2-4.7.4-9.4.5-14.1,0-2.2-.3-4.3-.5-6.5-.8-.9-1.7-1.7-2.8-2.9.4-.3,1.1-.8,1.7-1.3Z"/>
      <path class="cls-26" d="M80,195.9c.9.6,1.7,1.4,2.6,1.9,1.1.5,2.3.8,3.4,1.2-2.4.2-4.8.4-7.1.7-.4,0-.7,0-1.1,0,0-6.9-.1-13.9,0-20.8,0-1.7.7-3.5,1-5.2.4,0,.7,0,1.1,0,0,7.4,0,14.9,0,22.3Z"/>
      <path class="cls-1" d="M78.8,173.6c-.4,1.7-1,3.4-1,5.2,0,6.9,0,13.9,0,20.8-.2-.8-.6-1.6-.6-2.4,0-6.8,0-13.6,0-20.4,0-1.4-.3-3,1.6-3.2Z"/>
      <path class="cls-1" d="M80,195.9c0-7.4,0-14.9,0-22.3.2,1.3.5,2.5.5,3.8,0,5.1,0,10.2,0,15.3,0,1.1-.3,2.1-.5,3.2Z"/>
      <path class="cls-6" d="M89.3,177.9c.2,2.2.5,4.3.5,6.5,0,4.7-.3,9.4-.5,14.1,0-6.9,0-13.7,0-20.6Z"/>
      <path class="cls-1" d="M78.9,199.7c2.4-.2,4.8-.4,7.1-.7-.3.4-.5,1.1-.8,1.1-2.1,0-4.2-.3-6.4-.5Z"/>
      <path class="cls-6" d="M92,191.2c.2-2.8.4-5.7.5-8.5-.2,2.8-.4,5.7-.5,8.5Z"/>
      <path class="cls-6" d="M90.9,200.2c.4-1.8.8-3.6,1.1-5.4.4,2,1.8,4.3-1.1,5.4Z"/>
      <path class="cls-6" d="M92.6,180.9c-.2-1-.4-2-.5-3.1.2,1,.4,2,.5,3.1Z"/>
      <path class="cls-6" d="M89.3,199.6c.2.2.4.4.6.6-.2-.2-.4-.4-.6-.6Z"/>
      <path class="cls-3" d="M175.9,213.3c-1,.9-1.6,2-2.2,1.9-.6,0-1.5-1.2-1.6-1.9,0-.6,1-1.8,1.5-1.9.6,0,1.3,1,2.2,1.9Z"/>
      <path class="cls-12" d="M122.3,174.9c.5.5,1.6,1,1.6,1.5,0,6.9,0,13.7,0,20.6,0,.6-.6,1.3-1,1.9-.5-.5-1.2-.8-1.6-1.4-.4-.5-.5-1.3-.7-2-1.1-4.6-1.4-9.4-4-13.4-.3,0-.6,0-.9,0v16.5c-.4,0-.8.1-1.1.2-.2-.9-.5-1.7-.5-2.6-.2-6.2-.4-12.4-.4-18.7,0-1.1,1.1-2.1,1.8-3.2.7.9,1.7,1.7,2,2.7,1.2,4,2.1,8,3.8,12.2.4-.7.7-1.5,1.1-2.2,0-3.2,0-6.5,0-9.7,0-.8,0-1.6,0-2.4Z"/>
      <path class="cls-28" d="M122.3,177.2c0,3.2,0,6.5,0,9.7,0-3.2,0-6.5,0-9.7Z"/>
      <path class="cls-12" d="M99.8,186.9c-.1-2.4-.2-4.8-.3-7.2,0-3.2,1.8-5.4,4.7-5.4,3.3,0,4.8,1.5,4.9,4.9.1,3.9.4,7.8.5,11.7,0,1.7-.3,3.4-.7,5-.8,3.1-2.2,4-5.1,3.6-2.6-.4-3.9-2.1-4-4.9,0-2.6,0-5.2,0-7.9,0,0,0,0,0,0ZM107.4,186.9c0,0,.1,0,.2,0-.2-2.9-.2-5.8-.6-8.7-.2-1-1.4-2.4-2.2-2.5-.9,0-2.1,1-2.7,1.9-.5.7-.6,1.9-.6,2.9,0,4.4,0,8.8,0,13.3,0,2.1.3,3.9,2.7,4,2.4,0,3.1-1.7,3.2-3.9.1-2.3,0-4.6,0-6.9Z"/>
      <path class="cls-31" d="M26.6,185.7c0-2.9-.1-4.7,0-6.4,0-.7.8-1.8,1.3-1.9.8-.1,2.3.3,2.3.8.3,1.7.6,3.6,0,5.2-.4,1-2.1,1.4-3.8,2.4ZM27.9,183.9c2.7-2.4,2.7-4,0-5.3v5.3Z"/>
      <path class="cls-8" d="M175.1,189.4c-.2-1.2-.4-2.4-.6-3.7,1.2,1,2.1,2.1.6,3.7Z"/>
      <path class="cls-8" d="M176.7,193c-.4-.6-.7-1.3-1.1-1.9.4.6.7,1.3,1.1,1.9Z"/>
      <path class="cls-8" d="M174.5,184.6c-.2-.2-.4-.5-.6-.7.2.2.4.5.6.7Z"/>
      <path class="cls-29" d="M208.6,199c.2,0,.4,0,.6,0,0,0,0,0,0,0-.8.4-1.5,1.2-2.3,1.2-8.2,0-7,1.1-7.1-7.5,0-5.3,0-10.7,0-16,0-3.1.5-3.4,3.3-2.5-2-.1-2.8,1-2.7,3.1,0,6.4,0,12.9,0,19.3,0,2,.7,3.1,2.6,3,1.9-.1,3.8-.4,5.6-.6Z"/>
      <path class="cls-29" d="M209.2,199s0,0,0,0c0,0,0,0,0,0Z"/>
      <path class="cls-1" d="M81.7,215.3c0,0,0,.2-.1.2,0,0-.1,0-.2,0,0,0,0-.2,0-.2,0,0,.1,0,.2,0Z"/>
      <path class="cls-6" d="M107.4,186.9c0,2.3,0,4.6,0,6.9,0,2.2-.8,4-3.2,3.9-2.4,0-2.7-1.9-2.7-4,0-4.4,0-8.8,0-13.3,0-1,0-2.2.6-2.9.7-.9,1.9-2,2.7-1.9.8,0,2.1,1.5,2.2,2.5.5,2.8.5,5.8.6,8.7,0,0-.1,0-.2,0ZM104.2,177.5c-.7,2.6-1.7,5-.8,7.7.2.7-.1,1.5-.1,2.3,0,2.3,0,4.6.2,6.8,0,.4.8.7,1.8,1.5-.3-6.6.6-12.6-1.1-18.4Z"/>
      <path class="cls-3" d="M27.9,183.9v-5.3c2.7,1.3,2.7,2.9,0,5.3Z"/>
      <path class="cls-3" d="M104.2,177.5c1.7,5.8.8,11.7,1.1,18.4-1-.8-1.7-1.1-1.8-1.5-.2-2.3-.2-4.6-.2-6.8,0-.8.3-1.7.1-2.3-1-2.7.1-5.2.8-7.7Z"/>
    </g>
  </g>
</svg>